<?xml version="1.0" encoding="utf-8"?>
<!-- Generator: Adobe Illustrator 21.0.0, SVG Export Plug-In . SVG Version: 6.00 Build 0)  -->
<svg version="1.1" id="Слой_1" xmlns="http://www.w3.org/2000/svg" xmlns:xlink="http://www.w3.org/1999/xlink" x="0px" y="0px"
	 viewBox="0 0 160 180" style="enable-background:new 0 0 160 180;" xml:space="preserve">
<style type="text/css">
	.st0{clip-path:url(#SVGID_2_);fill:#010202;}
	.st1{clip-path:url(#SVGID_4_);fill:#010202;}
	.st2{clip-path:url(#SVGID_6_);fill:#010202;}
	.st3{clip-path:url(#SVGID_8_);fill:#010202;}
	.st4{clip-path:url(#SVGID_10_);fill:#010202;}
	.st5{clip-path:url(#SVGID_12_);fill:#010202;}
	.st6{clip-path:url(#SVGID_14_);fill:#010202;}
	.st7{clip-path:url(#SVGID_16_);fill:#010202;}
	.st8{clip-path:url(#SVGID_18_);fill:#010202;}
	.st9{clip-path:url(#SVGID_20_);fill:#010202;}
	.st10{clip-path:url(#SVGID_22_);fill:#010202;}
	.st11{clip-path:url(#SVGID_24_);fill:#010202;}
	.st12{clip-path:url(#SVGID_26_);fill:#010202;}
	.st13{clip-path:url(#SVGID_28_);fill:#010202;}
	.st14{clip-path:url(#SVGID_30_);fill:#010202;}
	.st15{clip-path:url(#SVGID_32_);fill:#010202;}
	.st16{clip-path:url(#SVGID_34_);fill:#010202;}
	.st17{clip-path:url(#SVGID_36_);fill:#010202;}
	.st18{clip-path:url(#SVGID_38_);fill:#010202;}
	.st19{clip-path:url(#SVGID_40_);fill:#010202;}
	.st20{clip-path:url(#SVGID_42_);fill:#010202;}
	.st21{clip-path:url(#SVGID_44_);fill:#010202;}
	.st22{clip-path:url(#SVGID_46_);fill:#010202;}
	.st23{clip-path:url(#SVGID_48_);fill:#010202;}
	.st24{clip-path:url(#SVGID_50_);fill:#010202;}
	.st25{clip-path:url(#SVGID_52_);fill:#010202;}
	.st26{clip-path:url(#SVGID_54_);fill:#010202;}
	.st27{clip-path:url(#SVGID_56_);fill:#010202;}
	.st28{clip-path:url(#SVGID_58_);fill:#010202;}
	.st29{clip-path:url(#SVGID_60_);fill:#010202;}
	.st30{clip-path:url(#SVGID_62_);fill:#010202;}
	.st31{clip-path:url(#SVGID_64_);fill:#010202;}
	.st32{clip-path:url(#SVGID_66_);fill:#010202;}
	.st33{clip-path:url(#SVGID_68_);fill:#010202;}
	.st34{clip-path:url(#SVGID_70_);fill:#010202;}
	.st35{clip-path:url(#SVGID_72_);fill:#010202;}
	.st36{clip-path:url(#SVGID_74_);fill:#010202;}
	.st37{clip-path:url(#SVGID_76_);fill:#010202;}
	.st38{clip-path:url(#SVGID_78_);fill:#010202;}
	.st39{clip-path:url(#SVGID_80_);fill:#010202;}
	.st40{clip-path:url(#SVGID_82_);fill:#010202;}
	.st41{clip-path:url(#SVGID_84_);fill:#010202;}
	.st42{clip-path:url(#SVGID_86_);fill:#010202;}
	.st43{clip-path:url(#SVGID_88_);fill:#010202;}
	.st44{clip-path:url(#SVGID_90_);fill:#010202;}
	.st45{clip-path:url(#SVGID_92_);fill:#010202;}
	.st46{clip-path:url(#SVGID_94_);fill:#010202;}
	.st47{clip-path:url(#SVGID_96_);fill:#010202;}
	.st48{clip-path:url(#SVGID_98_);fill:#010202;}
	.st49{clip-path:url(#SVGID_100_);fill:#010202;}
	.st50{clip-path:url(#SVGID_102_);fill:#010202;}
	.st51{clip-path:url(#SVGID_104_);fill:#010202;}
	.st52{clip-path:url(#SVGID_106_);fill:#010202;}
	.st53{clip-path:url(#SVGID_108_);fill:#010202;}
	.st54{clip-path:url(#SVGID_110_);fill:#010202;}
	.st55{clip-path:url(#SVGID_112_);fill:#010202;}
	.st56{clip-path:url(#SVGID_114_);fill:#010202;}
	.st57{clip-path:url(#SVGID_116_);fill:#010202;}
	.st58{clip-path:url(#SVGID_118_);fill:#010202;}
	.st59{clip-path:url(#SVGID_120_);fill:#010202;}
	.st60{clip-path:url(#SVGID_122_);fill:#010202;}
	.st61{clip-path:url(#SVGID_124_);fill:#010202;}
	.st62{clip-path:url(#SVGID_126_);fill:#010202;}
	.st63{clip-path:url(#SVGID_128_);fill:#010202;}
	.st64{clip-path:url(#SVGID_130_);fill:#4F4F4E;}
	.st65{clip-path:url(#SVGID_132_);fill:#4F4F4E;}
	.st66{clip-path:url(#SVGID_134_);fill:#4F4F4E;}
	.st67{clip-path:url(#SVGID_136_);fill:#4F4F4E;}
	.st68{clip-path:url(#SVGID_138_);fill:#4F4F4E;}
</style>
<g>
	<g>
		<g>
			<defs>
				<rect id="SVGID_1_" x="-140" y="-60" width="453" height="320.3"/>
			</defs>
			<clipPath id="SVGID_2_">
				<use xlink:href="#SVGID_1_"  style="overflow:visible;"/>
			</clipPath>
			<path class="st0" d="M41.1,149H42c0,0.6,0.3,0.9,0.9,0.9s0.9-0.3,0.9-0.8c0-1.2-2.5-1.2-2.5-3c0-0.9,0.6-1.5,1.6-1.5
				c1,0,1.6,0.6,1.7,1.7h-0.9c0-0.5-0.3-0.9-0.8-0.9c-0.5,0-0.8,0.3-0.8,0.7c0,1.1,2.5,1.1,2.5,3c0,0.9-0.6,1.6-1.7,1.6
				C41.8,150.7,41.1,150.1,41.1,149"/>
		</g>
	</g>
	<g>
		<g>
			<defs>
				<rect id="SVGID_3_" x="-140" y="-60" width="453" height="320.3"/>
			</defs>
			<clipPath id="SVGID_4_">
				<use xlink:href="#SVGID_3_"  style="overflow:visible;"/>
			</clipPath>
			<path class="st1" d="M46.1,148.7v-2.2c0-1.2,0.7-2,1.8-2c1.1,0,1.8,0.8,1.8,2v2.2c0,1.2-0.7,2-1.8,2
				C46.8,150.7,46.1,149.9,46.1,148.7 M48.8,148.7v-2.2c0-0.8-0.3-1.1-0.9-1.1c-0.6,0-0.9,0.4-0.9,1.1v2.2c0,0.8,0.3,1.1,0.9,1.1
				C48.5,149.8,48.8,149.5,48.8,148.7"/>
		</g>
	</g>
	<g>
		<g>
			<defs>
				<rect id="SVGID_5_" x="-140" y="-60" width="453" height="320.3"/>
			</defs>
			<clipPath id="SVGID_6_">
				<use xlink:href="#SVGID_5_"  style="overflow:visible;"/>
			</clipPath>
			<polygon class="st2" points="54.3,149.8 54.3,150.6 51.5,150.6 51.5,144.7 52.4,144.7 52.4,149.8 			"/>
		</g>
	</g>
	<g>
		<g>
			<defs>
				<rect id="SVGID_7_" x="-140" y="-60" width="453" height="320.3"/>
			</defs>
			<clipPath id="SVGID_8_">
				<use xlink:href="#SVGID_7_"  style="overflow:visible;"/>
			</clipPath>
			<path class="st3" d="M55.6,148.7v-2.2c0-1.2,0.7-2,1.8-2c1.1,0,1.8,0.8,1.8,2v2.2c0,1.2-0.7,2-1.8,2
				C56.3,150.7,55.6,149.9,55.6,148.7 M58.4,148.7v-2.2c0-0.8-0.3-1.1-0.9-1.1c-0.6,0-0.9,0.4-0.9,1.1v2.2c0,0.8,0.3,1.1,0.9,1.1
				C58.1,149.8,58.4,149.5,58.4,148.7"/>
		</g>
	</g>
	<g>
		<g>
			<defs>
				<rect id="SVGID_9_" x="-140" y="-60" width="453" height="320.3"/>
			</defs>
			<clipPath id="SVGID_10_">
				<use xlink:href="#SVGID_9_"  style="overflow:visible;"/>
			</clipPath>
			<path class="st4" d="M65.7,144.7v5.9h-0.9v-2.3c0-0.7,0.1-1.3,0.1-1.9h-0.1c-0.2,0.5-0.4,1-0.6,1.6l-0.5,1.3h-0.9l-0.5-1.3
				c-0.2-0.5-0.4-1.1-0.6-1.6h-0.1c0,0.6,0.1,1.2,0.1,1.9v2.3h-0.9v-5.9h0.9l1,2.4c0.2,0.3,0.3,0.9,0.4,1.2h0.1
				c0.1-0.3,0.3-0.9,0.4-1.2l1-2.4H65.7z"/>
		</g>
	</g>
	<g>
		<g>
			<defs>
				<rect id="SVGID_11_" x="-140" y="-60" width="453" height="320.3"/>
			</defs>
			<clipPath id="SVGID_12_">
				<use xlink:href="#SVGID_11_"  style="overflow:visible;"/>
			</clipPath>
			<rect x="67.7" y="144.7" class="st5" width="0.9" height="5.9"/>
		</g>
	</g>
	<g>
		<g>
			<defs>
				<rect id="SVGID_13_" x="-140" y="-60" width="453" height="320.3"/>
			</defs>
			<clipPath id="SVGID_14_">
				<use xlink:href="#SVGID_13_"  style="overflow:visible;"/>
			</clipPath>
			<path class="st6" d="M71.5,148.7l-1.5-4h0.9l0.6,2c0.1,0.3,0.2,0.6,0.3,0.9l0,0l0.3-1l0.6-1.9h0.9l-1.5,4v1.9h-0.9v-1.9
				L71.5,148.7L71.5,148.7z"/>
		</g>
	</g>
	<g>
		<g>
			<defs>
				<rect id="SVGID_15_" x="-140" y="-60" width="453" height="320.3"/>
			</defs>
			<clipPath id="SVGID_16_">
				<use xlink:href="#SVGID_15_"  style="overflow:visible;"/>
			</clipPath>
			<path class="st7" d="M77.2,149.4h-1.6l-0.3,1.2h-0.9l1.5-5.9h0.9l1.5,5.9h-0.9L77.2,149.4z M77,148.6l-0.4-1.6
				c-0.1-0.4-0.2-1-0.2-1.3l0,0c-0.1,0.3-0.1,0.9-0.2,1.3l-0.4,1.6H77z"/>
		</g>
	</g>
	<g>
		<g>
			<defs>
				<rect id="SVGID_17_" x="-140" y="-60" width="453" height="320.3"/>
			</defs>
			<clipPath id="SVGID_18_">
				<use xlink:href="#SVGID_17_"  style="overflow:visible;"/>
			</clipPath>
			<polygon class="st8" points="83.7,148 83.3,148.5 83.3,150.6 82.5,150.6 82.5,144.7 83.3,144.7 83.3,147.3 83.7,146.6 
				84.9,144.7 85.9,144.7 84.2,147.3 86.1,150.6 85.2,150.6 			"/>
		</g>
	</g>
	<g>
		<g>
			<defs>
				<rect id="SVGID_19_" x="-140" y="-60" width="453" height="320.3"/>
			</defs>
			<clipPath id="SVGID_20_">
				<use xlink:href="#SVGID_19_"  style="overflow:visible;"/>
			</clipPath>
			<path class="st9" d="M88.9,148.4h-0.5v2.2h-0.9v-5.9H89c1.1,0,1.8,0.7,1.8,1.8c0,0.9-0.4,1.6-1.1,1.8l1.3,2.3h-1L88.9,148.4z
				 M88.4,147.6H89c0.6,0,0.9-0.4,0.9-1.1c0-0.7-0.3-1.1-0.9-1.1h-0.6V147.6z"/>
		</g>
	</g>
	<g>
		<g>
			<defs>
				<rect id="SVGID_21_" x="-140" y="-60" width="453" height="320.3"/>
			</defs>
			<clipPath id="SVGID_22_">
				<use xlink:href="#SVGID_21_"  style="overflow:visible;"/>
			</clipPath>
			<path class="st10" d="M92.5,148.8v-4.1h0.9v4.1c0,0.8,0.3,1.1,0.9,1.1s0.9-0.3,0.9-1.1v-4.1H96v4.1c0,1.2-0.7,1.9-1.7,1.9
				C93.2,150.6,92.5,149.9,92.5,148.8"/>
		</g>
	</g>
	<g>
		<g>
			<defs>
				<rect id="SVGID_23_" x="-140" y="-60" width="453" height="320.3"/>
			</defs>
			<clipPath id="SVGID_24_">
				<use xlink:href="#SVGID_23_"  style="overflow:visible;"/>
			</clipPath>
			<path class="st11" d="M97.5,149h0.9c0,0.6,0.3,0.9,0.9,0.9s0.9-0.3,0.9-0.8c0-1.2-2.5-1.2-2.5-3c0-0.9,0.6-1.5,1.6-1.5
				c1,0,1.6,0.6,1.7,1.7h-0.9c0-0.5-0.3-0.9-0.8-0.9c-0.5,0-0.8,0.3-0.8,0.7c0,1.1,2.5,1.1,2.5,3c0,0.9-0.6,1.6-1.7,1.6
				C98.2,150.7,97.6,150.1,97.5,149"/>
		</g>
	</g>
	<g>
		<g>
			<defs>
				<rect id="SVGID_25_" x="-140" y="-60" width="453" height="320.3"/>
			</defs>
			<clipPath id="SVGID_26_">
				<use xlink:href="#SVGID_25_"  style="overflow:visible;"/>
			</clipPath>
			<polygon class="st12" points="106,144.7 106,150.6 105.1,150.6 105.1,148 103.5,148 103.5,150.6 102.6,150.6 102.6,144.7 
				103.5,144.7 103.5,147.2 105.1,147.2 105.1,144.7 			"/>
		</g>
	</g>
	<g>
		<g>
			<defs>
				<rect id="SVGID_27_" x="-140" y="-60" width="453" height="320.3"/>
			</defs>
			<clipPath id="SVGID_28_">
				<use xlink:href="#SVGID_27_"  style="overflow:visible;"/>
			</clipPath>
			<polygon class="st13" points="111,149.8 111,150.6 108,150.6 108,144.7 110.9,144.7 110.9,145.5 108.8,145.5 108.8,147.2 
				110.7,147.2 110.7,148 108.8,148 108.8,149.8 			"/>
		</g>
	</g>
	<g>
		<g>
			<defs>
				<rect id="SVGID_29_" x="-140" y="-60" width="453" height="320.3"/>
			</defs>
			<clipPath id="SVGID_30_">
				<use xlink:href="#SVGID_29_"  style="overflow:visible;"/>
			</clipPath>
			<polygon class="st14" points="115.6,149.8 115.6,150.6 112.8,150.6 112.8,144.7 113.6,144.7 113.6,149.8 			"/>
		</g>
	</g>
	<g>
		<g>
			<defs>
				<rect id="SVGID_31_" x="-140" y="-60" width="453" height="320.3"/>
			</defs>
			<clipPath id="SVGID_32_">
				<use xlink:href="#SVGID_31_"  style="overflow:visible;"/>
			</clipPath>
			<path class="st15" d="M120.5,144.7v5.9h-0.9l-1.3-2.9c-0.2-0.4-0.4-1.1-0.6-1.5l0,0c0.1,0.6,0.1,1.5,0.1,2v2.3H117v-5.9h0.9
				l1.3,3c0.2,0.4,0.4,1,0.5,1.3l0,0c-0.1-0.6-0.1-1.5-0.1-2v-2.3L120.5,144.7L120.5,144.7z"/>
		</g>
	</g>
	<g>
		<g>
			<defs>
				<rect id="SVGID_33_" x="-140" y="-60" width="453" height="320.3"/>
			</defs>
			<clipPath id="SVGID_34_">
				<use xlink:href="#SVGID_33_"  style="overflow:visible;"/>
			</clipPath>
			<path class="st16" d="M123.4,148.7l-1.5-4h0.9l0.6,2c0.1,0.3,0.2,0.6,0.3,0.9l0,0l0.3-1l0.6-1.9h0.9l-1.5,4v1.9h-0.9v-1.9
				L123.4,148.7L123.4,148.7z"/>
		</g>
	</g>
	<g>
		<g>
			<defs>
				<rect id="SVGID_35_" x="-140" y="-60" width="453" height="320.3"/>
			</defs>
			<clipPath id="SVGID_36_">
				<use xlink:href="#SVGID_35_"  style="overflow:visible;"/>
			</clipPath>
			<polygon class="st17" points="130,145.5 128.8,145.5 128.8,150.6 127.9,150.6 127.9,145.5 126.7,145.5 126.7,144.7 130,144.7 			
				"/>
		</g>
	</g>
	<g>
		<g>
			<defs>
				<rect id="SVGID_37_" x="-140" y="-60" width="453" height="320.3"/>
			</defs>
			<clipPath id="SVGID_38_">
				<use xlink:href="#SVGID_37_"  style="overflow:visible;"/>
			</clipPath>
			<path class="st18" d="M131.2,149h0.9c0,0.6,0.3,0.9,0.9,0.9c0.5,0,0.9-0.3,0.9-0.8c0-1.2-2.5-1.2-2.5-3c0-0.9,0.6-1.5,1.6-1.5
				c1,0,1.6,0.6,1.7,1.7h-0.9c0-0.5-0.3-0.9-0.8-0.9c-0.5,0-0.8,0.3-0.8,0.7c0,1.1,2.5,1.1,2.5,3c0,0.9-0.6,1.6-1.7,1.6
				C131.9,150.7,131.2,150.1,131.2,149"/>
		</g>
	</g>
	<g>
		<g>
			<defs>
				<rect id="SVGID_39_" x="-140" y="-60" width="453" height="320.3"/>
			</defs>
			<clipPath id="SVGID_40_">
				<use xlink:href="#SVGID_39_"  style="overflow:visible;"/>
			</clipPath>
			<polygon class="st19" points="137.5,148 137.1,148.5 137.1,150.6 136.3,150.6 136.3,144.7 137.1,144.7 137.1,147.3 137.5,146.6 
				138.7,144.7 139.7,144.7 138,147.3 139.9,150.6 139,150.6 			"/>
		</g>
	</g>
	<g>
		<g>
			<defs>
				<rect id="SVGID_41_" x="-140" y="-60" width="453" height="320.3"/>
			</defs>
			<clipPath id="SVGID_42_">
				<use xlink:href="#SVGID_41_"  style="overflow:visible;"/>
			</clipPath>
			<path class="st20" d="M143.6,149.4H142l-0.3,1.2h-0.9l1.5-5.9h0.9l1.5,5.9h-0.9L143.6,149.4z M143.4,148.6L143,147
				c-0.1-0.4-0.2-1-0.2-1.3l0,0c-0.1,0.3-0.1,0.9-0.2,1.3l-0.4,1.6H143.4z"/>
		</g>
	</g>
	<g>
		<g>
			<defs>
				<rect id="SVGID_43_" x="-140" y="-60" width="453" height="320.3"/>
			</defs>
			<clipPath id="SVGID_44_">
				<use xlink:href="#SVGID_43_"  style="overflow:visible;"/>
			</clipPath>
			<rect x="41.5" y="155.3" class="st21" width="0.9" height="5.9"/>
		</g>
	</g>
	<g>
		<g>
			<defs>
				<rect id="SVGID_45_" x="-140" y="-60" width="453" height="320.3"/>
			</defs>
			<clipPath id="SVGID_46_">
				<use xlink:href="#SVGID_45_"  style="overflow:visible;"/>
			</clipPath>
			<path class="st22" d="M47.8,155.3v5.9H47l-1.3-2.9c-0.2-0.4-0.4-1.1-0.6-1.5l0,0c0.1,0.6,0.1,1.5,0.1,2v2.3h-0.9v-5.9h0.9l1.3,3
				c0.2,0.4,0.4,1,0.5,1.3l0,0c-0.1-0.6-0.1-1.5-0.1-2v-2.3L47.8,155.3L47.8,155.3z"/>
		</g>
	</g>
	<g>
		<g>
			<defs>
				<rect id="SVGID_47_" x="-140" y="-60" width="453" height="320.3"/>
			</defs>
			<clipPath id="SVGID_48_">
				<use xlink:href="#SVGID_47_"  style="overflow:visible;"/>
			</clipPath>
			<polygon class="st23" points="52.7,156.1 51.5,156.1 51.5,161.2 50.6,161.2 50.6,156.1 49.4,156.1 49.4,155.3 52.7,155.3 			"/>
		</g>
	</g>
	<g>
		<g>
			<defs>
				<rect id="SVGID_49_" x="-140" y="-60" width="453" height="320.3"/>
			</defs>
			<clipPath id="SVGID_50_">
				<use xlink:href="#SVGID_49_"  style="overflow:visible;"/>
			</clipPath>
			<polygon class="st24" points="57.2,160.4 57.2,161.2 54.2,161.2 54.2,155.3 57.1,155.3 57.1,156.1 55.1,156.1 55.1,157.8 
				57,157.8 57,158.6 55.1,158.6 55.1,160.4 			"/>
		</g>
	</g>
	<g>
		<g>
			<defs>
				<rect id="SVGID_51_" x="-140" y="-60" width="453" height="320.3"/>
			</defs>
			<clipPath id="SVGID_52_">
				<use xlink:href="#SVGID_51_"  style="overflow:visible;"/>
			</clipPath>
			<path class="st25" d="M60.4,159.1h-0.5v2.2H59v-5.9h1.5c1.1,0,1.8,0.7,1.8,1.8c0,0.9-0.4,1.6-1.1,1.8l1.3,2.3h-1L60.4,159.1z
				 M59.8,158.3h0.6c0.6,0,0.9-0.4,0.9-1.1c0-0.7-0.3-1.1-0.9-1.1h-0.6V158.3z"/>
		</g>
	</g>
	<g>
		<g>
			<defs>
				<rect id="SVGID_53_" x="-140" y="-60" width="453" height="320.3"/>
			</defs>
			<clipPath id="SVGID_54_">
				<use xlink:href="#SVGID_53_"  style="overflow:visible;"/>
			</clipPath>
			<path class="st26" d="M67.6,155.3v5.9h-0.9l-1.3-2.9c-0.2-0.4-0.4-1.1-0.6-1.5l0,0c0.1,0.6,0.1,1.5,0.1,2v2.3h-0.9v-5.9h0.9
				l1.3,3c0.2,0.4,0.4,1,0.5,1.3l0,0c-0.1-0.6-0.1-1.5-0.1-2v-2.3L67.6,155.3L67.6,155.3z"/>
		</g>
	</g>
	<g>
		<g>
			<defs>
				<rect id="SVGID_55_" x="-140" y="-60" width="453" height="320.3"/>
			</defs>
			<clipPath id="SVGID_56_">
				<use xlink:href="#SVGID_55_"  style="overflow:visible;"/>
			</clipPath>
			<path class="st27" d="M71.8,160h-1.6l-0.3,1.2H69l1.5-5.9h0.9l1.5,5.9h-0.9L71.8,160z M71.6,159.3l-0.4-1.6
				c-0.1-0.4-0.2-1-0.2-1.3l0,0c-0.1,0.3-0.1,0.9-0.2,1.3l-0.4,1.6H71.6z"/>
		</g>
	</g>
	<g>
		<g>
			<defs>
				<rect id="SVGID_57_" x="-140" y="-60" width="453" height="320.3"/>
			</defs>
			<clipPath id="SVGID_58_">
				<use xlink:href="#SVGID_57_"  style="overflow:visible;"/>
			</clipPath>
			<polygon class="st28" points="77,156.1 75.8,156.1 75.8,161.2 74.9,161.2 74.9,156.1 73.7,156.1 73.7,155.3 77,155.3 			"/>
		</g>
	</g>
	<g>
		<g>
			<defs>
				<rect id="SVGID_59_" x="-140" y="-60" width="453" height="320.3"/>
			</defs>
			<clipPath id="SVGID_60_">
				<use xlink:href="#SVGID_59_"  style="overflow:visible;"/>
			</clipPath>
			<rect x="78.6" y="155.3" class="st29" width="0.9" height="5.9"/>
		</g>
	</g>
	<g>
		<g>
			<defs>
				<rect id="SVGID_61_" x="-140" y="-60" width="453" height="320.3"/>
			</defs>
			<clipPath id="SVGID_62_">
				<use xlink:href="#SVGID_61_"  style="overflow:visible;"/>
			</clipPath>
			<path class="st30" d="M81.2,159.4v-2.2c0-1.2,0.7-2,1.8-2c1.1,0,1.8,0.8,1.8,2v2.2c0,1.2-0.7,2-1.8,2
				C81.9,161.3,81.2,160.5,81.2,159.4 M84,159.4v-2.2c0-0.8-0.3-1.1-0.9-1.1c-0.6,0-0.9,0.4-0.9,1.1v2.2c0,0.8,0.3,1.1,0.9,1.1
				C83.7,160.5,84,160.1,84,159.4"/>
		</g>
	</g>
	<g>
		<g>
			<defs>
				<rect id="SVGID_63_" x="-140" y="-60" width="453" height="320.3"/>
			</defs>
			<clipPath id="SVGID_64_">
				<use xlink:href="#SVGID_63_"  style="overflow:visible;"/>
			</clipPath>
			<path class="st31" d="M90.2,155.3v5.9h-0.9l-1.3-2.9c-0.2-0.4-0.4-1.1-0.6-1.5l0,0c0.1,0.6,0.1,1.5,0.1,2v2.3h-0.9v-5.9h0.9
				l1.3,3c0.2,0.4,0.4,1,0.5,1.3l0,0c-0.1-0.6-0.1-1.5-0.1-2v-2.3L90.2,155.3L90.2,155.3z"/>
		</g>
	</g>
	<g>
		<g>
			<defs>
				<rect id="SVGID_65_" x="-140" y="-60" width="453" height="320.3"/>
			</defs>
			<clipPath id="SVGID_66_">
				<use xlink:href="#SVGID_65_"  style="overflow:visible;"/>
			</clipPath>
			<path class="st32" d="M94.4,160h-1.6l-0.3,1.2h-0.9l1.5-5.9h0.9l1.5,5.9h-0.9L94.4,160z M94.2,159.3l-0.4-1.6
				c-0.1-0.4-0.2-1-0.2-1.3l0,0c-0.1,0.3-0.1,0.9-0.2,1.3l-0.4,1.6H94.2z"/>
		</g>
	</g>
	<g>
		<g>
			<defs>
				<rect id="SVGID_67_" x="-140" y="-60" width="453" height="320.3"/>
			</defs>
			<clipPath id="SVGID_68_">
				<use xlink:href="#SVGID_67_"  style="overflow:visible;"/>
			</clipPath>
			<polygon class="st33" points="99.9,160.4 99.9,161.2 97.1,161.2 97.1,155.3 97.9,155.3 97.9,160.4 			"/>
		</g>
	</g>
	<g>
		<g>
			<defs>
				<rect id="SVGID_69_" x="-140" y="-60" width="453" height="320.3"/>
			</defs>
			<clipPath id="SVGID_70_">
				<use xlink:href="#SVGID_69_"  style="overflow:visible;"/>
			</clipPath>
			<path class="st34" d="M103.8,159.5V157c0-1.2,0.6-1.8,1.7-1.8c1.1,0,1.7,0.6,1.8,1.8h-0.9c-0.1-0.7-0.4-1-0.9-1
				c-0.5,0-0.8,0.3-0.8,1v2.4c0,0.7,0.3,1,0.9,1c0.6,0,0.9-0.3,0.9-1h0.9c-0.1,1.2-0.7,1.8-1.8,1.8
				C104.5,161.3,103.8,160.7,103.8,159.5"/>
		</g>
	</g>
	<g>
		<g>
			<defs>
				<rect id="SVGID_71_" x="-140" y="-60" width="453" height="320.3"/>
			</defs>
			<clipPath id="SVGID_72_">
				<use xlink:href="#SVGID_71_"  style="overflow:visible;"/>
			</clipPath>
			<path class="st35" d="M108.8,159.4v-2.2c0-1.2,0.7-2,1.8-2s1.8,0.8,1.8,2v2.2c0,1.2-0.7,2-1.8,2
				C109.5,161.3,108.8,160.5,108.8,159.4 M111.6,159.4v-2.2c0-0.8-0.3-1.1-0.9-1.1s-0.9,0.4-0.9,1.1v2.2c0,0.8,0.3,1.1,0.9,1.1
				C111.3,160.5,111.6,160.1,111.6,159.4"/>
		</g>
	</g>
	<g>
		<g>
			<defs>
				<rect id="SVGID_73_" x="-140" y="-60" width="453" height="320.3"/>
			</defs>
			<clipPath id="SVGID_74_">
				<use xlink:href="#SVGID_73_"  style="overflow:visible;"/>
			</clipPath>
			<path class="st36" d="M119,155.3v5.9h-0.9v-2.3c0-0.7,0.1-1.3,0.1-1.9h-0.1c-0.2,0.5-0.4,1-0.6,1.6L117,160h-0.9l-0.5-1.3
				c-0.2-0.5-0.4-1.1-0.6-1.6h-0.1c0,0.6,0.1,1.2,0.1,1.9v2.3h-0.9v-5.9h0.9l1,2.4c0.1,0.3,0.3,0.9,0.4,1.2h0.1
				c0.1-0.3,0.3-0.9,0.4-1.2l1-2.4H119z"/>
		</g>
	</g>
	<g>
		<g>
			<defs>
				<rect id="SVGID_75_" x="-140" y="-60" width="453" height="320.3"/>
			</defs>
			<clipPath id="SVGID_76_">
				<use xlink:href="#SVGID_75_"  style="overflow:visible;"/>
			</clipPath>
			<path class="st37" d="M124.3,157.2c0,1.2-0.6,1.9-1.8,1.9h-0.7v2.1H121v-5.9h1.6C123.7,155.3,124.3,156,124.3,157.2 M123.5,157.2
				c0-0.7-0.3-1.1-1-1.1h-0.7v2.2h0.7C123.2,158.3,123.5,158,123.5,157.2"/>
		</g>
	</g>
	<g>
		<g>
			<defs>
				<rect id="SVGID_77_" x="-140" y="-60" width="453" height="320.3"/>
			</defs>
			<clipPath id="SVGID_78_">
				<use xlink:href="#SVGID_77_"  style="overflow:visible;"/>
			</clipPath>
			<polygon class="st38" points="128.9,160.4 128.9,161.2 125.9,161.2 125.9,155.3 128.8,155.3 128.8,156.1 126.8,156.1 
				126.8,157.8 128.6,157.8 128.6,158.6 126.8,158.6 126.8,160.4 			"/>
		</g>
	</g>
	<g>
		<g>
			<defs>
				<rect id="SVGID_79_" x="-140" y="-60" width="453" height="320.3"/>
			</defs>
			<clipPath id="SVGID_80_">
				<use xlink:href="#SVGID_79_"  style="overflow:visible;"/>
			</clipPath>
			<polygon class="st39" points="133.5,156.1 132.3,156.1 132.3,161.2 131.4,161.2 131.4,156.1 130.2,156.1 130.2,155.3 
				133.5,155.3 			"/>
		</g>
	</g>
	<g>
		<g>
			<defs>
				<rect id="SVGID_81_" x="-140" y="-60" width="453" height="320.3"/>
			</defs>
			<clipPath id="SVGID_82_">
				<use xlink:href="#SVGID_81_"  style="overflow:visible;"/>
			</clipPath>
			<rect x="135.1" y="155.3" class="st40" width="0.9" height="5.9"/>
		</g>
	</g>
	<g>
		<g>
			<defs>
				<rect id="SVGID_83_" x="-140" y="-60" width="453" height="320.3"/>
			</defs>
			<clipPath id="SVGID_84_">
				<use xlink:href="#SVGID_83_"  style="overflow:visible;"/>
			</clipPath>
			<polygon class="st41" points="140.8,156.1 139.5,156.1 139.5,161.2 138.7,161.2 138.7,156.1 137.5,156.1 137.5,155.3 
				140.8,155.3 			"/>
		</g>
	</g>
	<g>
		<g>
			<defs>
				<rect id="SVGID_85_" x="-140" y="-60" width="453" height="320.3"/>
			</defs>
			<clipPath id="SVGID_86_">
				<use xlink:href="#SVGID_85_"  style="overflow:visible;"/>
			</clipPath>
			<rect x="142.3" y="155.3" class="st42" width="0.9" height="5.9"/>
		</g>
	</g>
	<g>
		<g>
			<defs>
				<rect id="SVGID_87_" x="-140" y="-60" width="453" height="320.3"/>
			</defs>
			<clipPath id="SVGID_88_">
				<use xlink:href="#SVGID_87_"  style="overflow:visible;"/>
			</clipPath>
			<path class="st43" d="M145,159.4v-2.2c0-1.2,0.7-2,1.8-2c1.1,0,1.8,0.8,1.8,2v2.2c0,1.2-0.7,2-1.8,2
				C145.6,161.3,145,160.5,145,159.4 M147.7,159.4v-2.2c0-0.8-0.3-1.1-0.9-1.1c-0.6,0-0.9,0.4-0.9,1.1v2.2c0,0.8,0.3,1.1,0.9,1.1
				C147.4,160.5,147.7,160.1,147.7,159.4"/>
		</g>
	</g>
	<g>
		<g>
			<defs>
				<rect id="SVGID_89_" x="-140" y="-60" width="453" height="320.3"/>
			</defs>
			<clipPath id="SVGID_90_">
				<use xlink:href="#SVGID_89_"  style="overflow:visible;"/>
			</clipPath>
			<path class="st44" d="M153.9,155.3v5.9h-0.9l-1.3-2.9c-0.2-0.4-0.4-1.1-0.5-1.5l0,0c0.1,0.6,0.1,1.5,0.1,2v2.3h-0.9v-5.9h0.9
				l1.3,3c0.2,0.4,0.4,1,0.5,1.3l0,0c-0.1-0.6-0.1-1.5-0.1-2v-2.3L153.9,155.3L153.9,155.3z"/>
		</g>
	</g>
	<g>
		<g>
			<defs>
				<rect id="SVGID_91_" x="-140" y="-60" width="453" height="320.3"/>
			</defs>
			<clipPath id="SVGID_92_">
				<use xlink:href="#SVGID_91_"  style="overflow:visible;"/>
			</clipPath>
			<path class="st45" d="M41.3,170v-2.2c0-1.2,0.7-2,1.8-2c1.1,0,1.8,0.8,1.8,2v2.2c0,1.2-0.7,2-1.8,2C42,172,41.3,171.2,41.3,170
				 M44,170v-2.2c0-0.8-0.3-1.1-0.9-1.1c-0.6,0-0.9,0.4-0.9,1.1v2.2c0,0.8,0.3,1.1,0.9,1.1C43.7,171.1,44,170.7,44,170"/>
		</g>
	</g>
	<g>
		<g>
			<defs>
				<rect id="SVGID_93_" x="-140" y="-60" width="453" height="320.3"/>
			</defs>
			<clipPath id="SVGID_94_">
				<use xlink:href="#SVGID_93_"  style="overflow:visible;"/>
			</clipPath>
			<polygon class="st46" points="47.6,166.7 47.6,168.5 49.4,168.5 49.4,169.3 47.6,169.3 47.6,171.8 46.8,171.8 46.8,165.9 
				49.6,165.9 49.6,166.7 			"/>
		</g>
	</g>
	<g>
		<g>
			<defs>
				<rect id="SVGID_95_" x="-140" y="-60" width="453" height="320.3"/>
			</defs>
			<clipPath id="SVGID_96_">
				<use xlink:href="#SVGID_95_"  style="overflow:visible;"/>
			</clipPath>
			<path class="st47" d="M53.6,170v-2.2c0-1.2,0.7-2,1.8-2c1.1,0,1.8,0.8,1.8,2v2.2c0,1.2-0.7,2-1.8,2C54.3,172,53.6,171.2,53.6,170
				 M56.4,170v-2.2c0-0.8-0.3-1.1-0.9-1.1c-0.6,0-0.9,0.4-0.9,1.1v2.2c0,0.8,0.3,1.1,0.9,1.1C56.1,171.1,56.4,170.7,56.4,170"/>
		</g>
	</g>
	<g>
		<g>
			<defs>
				<rect id="SVGID_97_" x="-140" y="-60" width="453" height="320.3"/>
			</defs>
			<clipPath id="SVGID_98_">
				<use xlink:href="#SVGID_97_"  style="overflow:visible;"/>
			</clipPath>
			<path class="st48" d="M62.5,167.9c0,1.2-0.6,1.9-1.8,1.9H60v2.1h-0.9V166h1.6C61.8,165.9,62.5,166.6,62.5,167.9 M61.7,167.9
				c0-0.7-0.3-1.1-1-1.1H60v2.2h0.7C61.3,168.9,61.7,168.6,61.7,167.9"/>
		</g>
	</g>
	<g>
		<g>
			<defs>
				<rect id="SVGID_99_" x="-140" y="-60" width="453" height="320.3"/>
			</defs>
			<clipPath id="SVGID_100_">
				<use xlink:href="#SVGID_99_"  style="overflow:visible;"/>
			</clipPath>
			<polygon class="st49" points="67,171 67,171.8 64.1,171.8 64.1,165.9 67,165.9 67,166.7 64.9,166.7 64.9,168.5 66.8,168.5 
				66.8,169.3 64.9,169.3 64.9,171 			"/>
		</g>
	</g>
	<g>
		<g>
			<defs>
				<rect id="SVGID_101_" x="-140" y="-60" width="453" height="320.3"/>
			</defs>
			<clipPath id="SVGID_102_">
				<use xlink:href="#SVGID_101_"  style="overflow:visible;"/>
			</clipPath>
			<path class="st50" d="M70.2,169.7h-0.5v2.2h-0.9v-5.9h1.5c1.1,0,1.8,0.7,1.8,1.8c0,0.9-0.4,1.6-1.1,1.8l1.3,2.3h-1L70.2,169.7z
				 M69.7,168.9h0.6c0.6,0,0.9-0.4,0.9-1.1c0-0.7-0.3-1.1-0.9-1.1h-0.6V168.9z"/>
		</g>
	</g>
	<g>
		<g>
			<defs>
				<rect id="SVGID_103_" x="-140" y="-60" width="453" height="320.3"/>
			</defs>
			<clipPath id="SVGID_104_">
				<use xlink:href="#SVGID_103_"  style="overflow:visible;"/>
			</clipPath>
			<path class="st51" d="M76.1,170.7h-1.6l-0.3,1.2h-0.9l1.5-5.9h0.9l1.5,5.9h-0.9L76.1,170.7z M75.9,169.9l-0.4-1.6
				c-0.1-0.4-0.2-1-0.2-1.3l0,0c-0.1,0.3-0.1,0.9-0.2,1.3l-0.4,1.6H75.9z"/>
		</g>
	</g>
	<g>
		<g>
			<defs>
				<rect id="SVGID_105_" x="-140" y="-60" width="453" height="320.3"/>
			</defs>
			<clipPath id="SVGID_106_">
				<use xlink:href="#SVGID_105_"  style="overflow:visible;"/>
			</clipPath>
			<path class="st52" d="M81,170.2h0.9c0,0.6,0.3,0.9,0.9,0.9c0.6,0,0.9-0.3,0.9-0.8c0-1.2-2.5-1.2-2.5-3c0-0.9,0.6-1.5,1.6-1.5
				c1,0,1.6,0.6,1.7,1.7h-0.9c0-0.6-0.3-0.9-0.8-0.9c-0.5,0-0.8,0.3-0.8,0.7c0,1.1,2.5,1.1,2.5,3c0,0.9-0.6,1.6-1.7,1.6
				C81.7,172,81,171.3,81,170.2"/>
		</g>
	</g>
	<g>
		<g>
			<defs>
				<rect id="SVGID_107_" x="-140" y="-60" width="453" height="320.3"/>
			</defs>
			<clipPath id="SVGID_108_">
				<use xlink:href="#SVGID_107_"  style="overflow:visible;"/>
			</clipPath>
			<rect x="86.1" y="165.9" class="st53" width="0.9" height="5.9"/>
		</g>
	</g>
	<g>
		<g>
			<defs>
				<rect id="SVGID_109_" x="-140" y="-60" width="453" height="320.3"/>
			</defs>
			<clipPath id="SVGID_110_">
				<use xlink:href="#SVGID_109_"  style="overflow:visible;"/>
			</clipPath>
			<path class="st54" d="M92.4,165.9v5.9h-0.9l-1.3-2.9c-0.2-0.4-0.4-1.1-0.6-1.5l0,0c0.1,0.6,0.1,1.5,0.1,2v2.3h-0.9v-5.9h0.9
				l1.3,3c0.2,0.4,0.4,1,0.5,1.3l0,0c-0.1-0.6-0.1-1.5-0.1-2v-2.3L92.4,165.9L92.4,165.9z"/>
		</g>
	</g>
	<g>
		<g>
			<defs>
				<rect id="SVGID_111_" x="-140" y="-60" width="453" height="320.3"/>
			</defs>
			<clipPath id="SVGID_112_">
				<use xlink:href="#SVGID_111_"  style="overflow:visible;"/>
			</clipPath>
			<path class="st55" d="M94.3,170.1v-2.4c0-1.2,0.6-1.8,1.7-1.8c1,0,1.7,0.6,1.7,1.8h-0.9c-0.1-0.7-0.3-1-0.9-1s-0.9,0.3-0.9,1v2.4
				c0,0.7,0.3,1,0.9,1c0.6,0,0.9-0.3,0.9-1v-0.8H96v-0.8h1.8v1.5c0,1.1-0.7,1.8-1.7,1.8C95,172,94.3,171.3,94.3,170.1"/>
		</g>
	</g>
	<g>
		<g>
			<defs>
				<rect id="SVGID_113_" x="-140" y="-60" width="453" height="320.3"/>
			</defs>
			<clipPath id="SVGID_114_">
				<use xlink:href="#SVGID_113_"  style="overflow:visible;"/>
			</clipPath>
			<polygon class="st56" points="102.5,171 102.5,171.8 99.5,171.8 99.5,165.9 102.4,165.9 102.4,166.7 100.3,166.7 100.3,168.5 
				102.2,168.5 102.2,169.3 100.3,169.3 100.3,171 			"/>
		</g>
	</g>
	<g>
		<g>
			<defs>
				<rect id="SVGID_115_" x="-140" y="-60" width="453" height="320.3"/>
			</defs>
			<clipPath id="SVGID_116_">
				<use xlink:href="#SVGID_115_"  style="overflow:visible;"/>
			</clipPath>
			<path class="st57" d="M105.6,169.7h-0.5v2.2h-0.9v-5.9h1.5c1.1,0,1.8,0.7,1.8,1.8c0,0.9-0.4,1.6-1.1,1.8l1.3,2.3h-1L105.6,169.7z
				 M105.1,168.9h0.6c0.6,0,0.9-0.4,0.9-1.1c0-0.7-0.3-1.1-0.9-1.1h-0.6V168.9z"/>
		</g>
	</g>
	<g>
		<g>
			<defs>
				<rect id="SVGID_117_" x="-140" y="-60" width="453" height="320.3"/>
			</defs>
			<clipPath id="SVGID_118_">
				<use xlink:href="#SVGID_117_"  style="overflow:visible;"/>
			</clipPath>
			<path class="st58" d="M109,170.2h0.9c0,0.6,0.3,0.9,0.9,0.9s0.9-0.3,0.9-0.8c0-1.2-2.5-1.2-2.5-3c0-0.9,0.6-1.5,1.6-1.5
				c1,0,1.6,0.6,1.7,1.7h-0.9c0-0.6-0.3-0.9-0.8-0.9c-0.5,0-0.8,0.3-0.8,0.7c0,1.1,2.5,1.1,2.5,3c0,0.9-0.6,1.6-1.7,1.6
				C109.6,172,109,171.3,109,170.2"/>
		</g>
	</g>
	<g>
		<g>
			<defs>
				<rect id="SVGID_119_" x="-140" y="-60" width="453" height="320.3"/>
			</defs>
			<clipPath id="SVGID_120_">
				<use xlink:href="#SVGID_119_"  style="overflow:visible;"/>
			</clipPath>
			<path class="st59" d="M34.9,122.4c-3.1-0.3-5.6-0.6-6.6-4c-1.5-5,1-9.3,4.5-12.5c0.2-0.2,0.5-0.4,0.8-0.7
				c-0.1,0.2-0.1,0.4-0.1,0.5c-0.1,0.4-0.2,0.9-0.2,1.3c-0.1,0.1-0.1,0.1-0.2,0.1c-0.3,0.1-1.2,0.3-1.2,0.3s0.8,0,1.3-0.1
				c0.1,1,0.4,1.8,1.6,1.8c2.1,0.1,4-1.4,5-3.2c0.6-1.1,1.2-3.2-0.1-4.1c-1.4-1.1-3.7,0.3-4.9,1.1c-4.7,3-8.7,8.1-8,13.9
				c0.3,2.8,1.5,5.3,4.4,6.2c1.4,0.4,3,0.6,4.6,0.5s2.3-0.2,3.5-0.6c0.8-0.2,1.6-0.9,1.6-0.9s-0.9,0.2-1.7,0.3
				C37.6,122.5,36.5,122.6,34.9,122.4 M34.3,106.3c0.1-0.3,0.1-0.8,0.2-1c0.4-0.6,0.9,0.5,0.2,0.9C34.5,106.1,34.4,106.3,34.3,106.3
				C34.3,106.3,34.3,106.3,34.3,106.3 M38.1,102.5c2.4-0.2,0.9,3,0.1,3.9c-1.1,1.3-3.8,2.6-4,0.5c0.9-0.3,2.3-1,1.7-2
				c-0.2-0.3-0.7-0.7-1.2-0.8C35.8,103.2,37,102.5,38.1,102.5"/>
		</g>
	</g>
	<g>
		<g>
			<defs>
				<rect id="SVGID_121_" x="-140" y="-60" width="453" height="320.3"/>
			</defs>
			<clipPath id="SVGID_122_">
				<use xlink:href="#SVGID_121_"  style="overflow:visible;"/>
			</clipPath>
			<path class="st60" d="M123.3,121.5c-0.8-1.1-2.4-1.8-3.6-2.4c-1.1-0.5-2.2-1.1-3.3-1.6c0.1-0.2,0.2-0.4,0.2-0.6
				c0.8-2.3,1.1-5.9-0.2-8.1c-1.1-1.9-2.9-3.2-5.1-3c-1.9,0.3-3.4,2.2-3.7,4c-0.5,4.3,4,6.7,7.2,8.1c-0.1,0.2-0.2,0.3-0.3,0.4
				c-0.9,1.1-2.5,2.3-3.9,2.4c-0.7,0.2-1.1-0.1-1.1-0.8c0.7-0.3,1.4-0.5,2.1-0.8c0.6-0.2,0.3-1.2-0.3-1c-0.6,0.2-1.6,0.4-2.3,0.9
				c-1.6,0.6-3.1,1.1-4.7,1.8c-1.9,0.8-4.5,1.6-4.9-1.2c-0.1-0.5-0.1-1-0.1-1.5c0.4-0.2,0.8-0.4,1.2-0.5c1-0.5,3-2,2.4-3.4
				c-0.5-1.2-1.9-0.5-2.6,0c-0.9,0.7-1.6,1.9-1.9,3.2c-1.1,0.4-2.2,0.5-3.3,0.6c-0.5,0.1-1.6,0.2-1.9-0.2c-0.2-0.2,0-1.4,0-1.7
				c0-0.4-0.5-0.6-0.8-0.4c-1.2,0.8-2.5,1.6-3.9,2.2c-1.2,0.5-0.9-0.2-0.9-1.6c0-0.8,0.2-1.2-0.2-1.9c-0.2-0.3-0.6-0.3-0.8-0.1
				c-0.7,0.9-2.7,2.4-3.7,3.1c-0.3,0.2-1.6,0.9-1.8,0.4c-0.1-0.3,0.8-1.9,1-2.3c0.2-0.5-0.3-0.9-0.8-0.6c-0.4,0.2-1.8,0.8-3,1.1
				c0.2-1,0.2-2.3-0.6-2.9c-1.1-0.7-2,0.5-2.4,1.5c-0.8,1.8,0,2.5,1.2,2.6c-0.3,0.4-0.7,0.7-1.1,1c-1.5,1-3.5,1.1-3.9-0.9
				c-0.2-1,0.2-1.7,0.9-2c0.6-0.2,1.2-0.4,1.8-0.5c0.5-0.1,0.4-1.1-0.2-1c-0.5,0.1-1,0.2-1.5,0.4c-1.3,0.4-2.5,0.9-3.7,1.6
				c-0.5,0.3-1,0.6-1.5,1c0.1-0.1,0.1-0.2,0.2-0.3c0.1-0.2-0.2-0.6-0.4-0.6c-0.2,0-0.3,0-0.4-0.1c0.7-0.8,1.2-1.6,1.6-2.6
				c0.1-0.3-0.2-0.6-0.5-0.6c-1.2,0.1-2.2,1.3-2.8,2.3c-0.3,0.4-0.9,1.3-1.2,2.1c-0.8,0.5-1.5,1-2.1,1.5c-0.3,0.2-0.7,0.8-1.1,0.9
				c-1.6,0.6-1.5-1.1-1.4-2c0.2-1.2,0.4-2.5,0.6-3.7c0.1-0.5-0.7-0.9-1-0.3c-0.9,2.1-2.5,3.6-4.2,5c-0.6,0.5-1.3,1.3-2,1.7
				c-0.9,0.4-1,0-1.5-1.1c-0.1-0.2-0.2-0.9-0.3-1c-0.2-0.4-0.6-0.4-0.9-0.2c-0.8,0.6-1.5,1.3-2.2,1.9c-0.3,0.3-0.7,0.6-1.1,0.8
				c-0.1,0.1-0.2,0.2-0.3,0.2c-0.9,0.7-1.1-0.2-0.8-2.5c0.2-0.5-0.4-1.1-0.8-0.6c-0.1,0.1-0.3,0.3-0.5,0.5c-0.6-1.1-1.5-2.5-3-2.1
				c-1.3,0.4-2.2,2.2-2.3,3.4c-0.1,1.2,0.4,1.9,1.6,1.9c1.4,0,2.7-0.8,3.8-1.7c-0.1,1.3,0.3,2.5,1.9,2.3c0.8-0.1,1.5-1,2-1.4
				c0.6-0.5,1.2-1,1.8-1.5c0.5,1.7,0.9,3.5,3,1.9c1.8-1.3,3.6-2.9,5-4.6c-0.4,2.4-0.5,5.3,2,4.6c0.8-0.2,1.6-1.1,2.2-1.6
				c0.4-0.3,0.7-0.5,1.1-0.8l0,0c0.5,1.2,1.6,0.8,2.5,0c0.1,0,0.2,0,0.3,0c0.9-0.3,1.7-0.9,2.5-1.4c0.5-0.3,1.1-0.6,1.7-0.9
				c-0.3,0.7-0.2,1.6,0.4,2.6c1.6,2.8,5.5,0.8,6.9-1.4c0.9-0.2,1.9-0.4,2.7-0.8c-0.5,1.2-1,2.7,0.3,3.1c1.8,0.6,4.5-2.1,5.8-3.7
				c0,1.5-0.8,3.7,1.1,3.5c1.3-0.1,3-1.2,4.3-2c-0.1,0.9,0.1,1.7,1.2,1.9c1.5,0.3,3.3,0.1,5-0.5c-0.1,1.5,0.3,2.9,1.4,3.8
				c1,0.8,2.7,0.5,3.8,0.1c1.6-0.6,3.2-1.2,4.7-1.8c0.2,1.5,2.5,1.5,3.5,1.1c1.6-0.5,3.1-1.7,4.1-3.2c2,0.9,4.2,1.8,5.9,3.1
				c3.2,2.5-0.7,7.3-2.6,9.3c-0.2,0.2-2.9,2.5-2.9,2.5s3.1-2.4,3.3-2.7C121.9,128.6,125.8,124.8,123.3,121.5 M40.6,119.7
				c-0.2-0.5,0.5-1.9,0.9-2.2c1.5-1.3,2.2,0.1,2.7,1.1C42.8,119.7,41,120.8,40.6,119.7 M67.1,114.1c-0.2,0.3-0.4,0.5-0.6,0.8
				C66.7,114.6,66.9,114.3,67.1,114.1 M65,117.8c-0.1-0.1,0-0.2,0.1-0.4c0.1-0.1,0.3-0.2,0.4-0.3c0.2-0.2,0.4-0.3,0.5-0.4
				c0.1,0.1,0.2,0.1,0.3,0.1h0.3C66.1,117.3,65.4,118.1,65,117.8 M76.4,115.3c0-1.2,0.8-1.5,1.1-1.1c0.5,0.6,0.4,1.1,0,1.8
				C76.9,116.1,76.4,115.9,76.4,115.3 M100.5,115.8c0.4-0.4,1.7-2.1,1.3-0.6c-0.3,0.9-1.1,1.3-1.9,1.7
				C100,116.5,100.2,116.2,100.5,115.8 M114.4,116.7c-1.7-0.8-3.2-1.6-4.3-3.1c-1.2-1.7-1.8-3.4-0.4-5.3c1.5-1.9,3.8-1.6,5.3,0.1
				c1.8,2.1,1.9,6.1,0.6,8.8C115.1,117,114.8,116.9,114.4,116.7"/>
		</g>
	</g>
	<g>
		<g>
			<defs>
				<rect id="SVGID_123_" x="-140" y="-60" width="453" height="320.3"/>
			</defs>
			<clipPath id="SVGID_124_">
				<use xlink:href="#SVGID_123_"  style="overflow:visible;"/>
			</clipPath>
			<path class="st61" d="M76.7,112c0-0.2,0-0.3,0-0.4c-0.1-0.6-1.1-0.6-1,0.1c0,0.2,0,0.3,0,0.4C75.7,112.7,76.7,112.7,76.7,112"/>
		</g>
	</g>
	<g>
		<g>
			<defs>
				<rect id="SVGID_125_" x="-140" y="-60" width="453" height="320.3"/>
			</defs>
			<clipPath id="SVGID_126_">
				<use xlink:href="#SVGID_125_"  style="overflow:visible;"/>
			</clipPath>
			<path class="st62" d="M12.6,133.6c-0.5-0.6-0.8-1.5-1.5-1.9c0.3-0.1,0.5-0.3,0.7-0.4c1.8-1,3.4-2.5,4.9-3.9
				c0.5-0.5-0.1-1-0.5-0.4c-1.6,1.7-4.1,3.7-6.9,4.6c-0.9,0.3-1.8,0.1-2.5,0.5c0.4-2.7,0.8-6.7,1.6-8.1c0.4-0.6-0.9-1-1-0.3
				c-1,4.4-1.9,8.8-2.3,13.3c-0.1,0.7,1,0.7,1.1,0c0.1-1.1,0.2-2.3,0.3-3.3c0.1-0.1,0.1-0.1,0.1-0.1c0.4-0.8,2.1-1,2.9-1.2
				c0.1,0,0.2-0.1,0.2-0.1c0.1,0,0.1,0,0.1,0.1c1,0.2,1.7,1.8,2.3,2.6c0.6,0.9,1.3,1.7,2,2.5c0.3,0.1,0.6-0.1,0.7-0.4
				C14.1,136.1,13.3,134.7,12.6,133.6"/>
		</g>
	</g>
	<g>
		<g>
			<defs>
				<rect id="SVGID_127_" x="-140" y="-60" width="453" height="320.3"/>
			</defs>
			<clipPath id="SVGID_128_">
				<use xlink:href="#SVGID_127_"  style="overflow:visible;"/>
			</clipPath>
			<path class="st63" d="M152.3,133.1c-0.8,0.4-1.3,0.7-2.2,1c-1.6,0.7-1.1-0.5-0.4-1.4c0.3-0.4-0.2-0.9-0.6-0.8
				c-0.3,0.1-0.7,0.2-1,0.3c-0.3-1.2-1.1-2.8-2.5-3c-1.7-0.2-2.7,1.7-3.2,3c-0.1,0.3-0.2,0.5-0.2,0.8l-0.1,0.3
				c-1.9,0.9-2.4-0.1-3.8-1c-0.1-0.1-0.6-0.3-0.8-0.4c1-0.7,2-1.5,2.5-2.5c0.3-0.7,1.1-2,0.8-2.9c-0.1-0.2-0.3-0.3-0.4-0.3
				c-3.1,0.3-5.3,1.5-7.5,3.5c0-1.6,0.1-2.4-0.2-3.9c-0.1-0.6-1-0.7-1,0.2c-0.1,2.7-0.9,4-1.4,4.8c-0.4,0.8-1.8,2.4-3,2.3
				c-0.1-0.5-0.4-1-1.2-1.4c-0.4-0.2-0.9,0.2-0.8,0.6c0.1,0.2,0.1,0.3,0.2,0.4c0.4,0.5,0.1,1.2-0.3,1.5c-0.9,0.5-1.9-0.3-2-1
				c0-0.6,0.5-1.6,0.6-2.1c0.2-0.3,0.3-0.7,0.4-1c0.2-0.5-0.7-1-1-0.4c-0.2,0.4-0.4,0.8-0.5,1.3c-1,1.6-2.4,3-3.9,4.2
				c-0.4-0.2-1.2-0.8-1.3-1.2c-0.1-0.3-0.5-0.5-0.8-0.3c-0.6,0.4-1.3,0.9-2,1c-1,0.1-1.9-0.5-1.6-2c0.1-0.5-0.1-0.9-0.5-0.7
				c-1,0.5-2,1-3,1.5c-2,0.9-2.3-0.2-1.8-1.9c0.1-0.4-0.4-0.9-0.8-0.6c-1.4,1-2.7,1.7-4.1,2.3c-0.5,0.3-1.7,0.6-2.4,0.8
				c-1.2,0.2-1-1.4-0.9-2.2c0.1-0.5-0.5-0.8-0.9-0.5c-0.8,0.6-1.4,1.3-2.3,1.9c-0.3,0.2-0.9,0.6-1.3,0.6c-1.4,0.1-1.3-1.5-0.8-2.4
				c0.1-0.3-0.2-0.7-0.5-0.6c-2.1,0.2-3.8,0.9-5.6,1.8c0.4-1.2,1.1-2.4,1.8-3.5c0.3-0.5-0.4-1.1-0.8-0.6c-0.8,1-1.6,2-2.7,2.6
				c-1.2,0.8-2.6,0.8-4,0.6c-0.2-0.1-0.2-0.1-0.8-0.3c-0.5-0.2-0.8,0.5-0.4,1c0,0,0.1,0.2,0.2,0.2c0,0.1-0.5,1-1.5,1.3
				c-0.6,0.2-0.6-0.4-0.4-1.5c0-0.1,0.1-0.2,0.1-0.3c1.2-0.8,2-1.4,2.7-2.7c0.2-0.4,0.2-1.2-0.2-1.1c-0.8,0.1-1.3,0.4-2.1,1.3
				c-0.5,0.6-1,1.3-1.3,1.8c-0.8,0.5-1.6,0.8-2.3,1.2c-0.9,0.5-2.7,1.8-1.8-0.1c0.1-0.2,0.5-1,0.6-1.2c1.4-0.8,2.6-1.8,2.5-3.2
				c0-0.4-0.3-0.6-0.6-0.5c-1.3,0.3-1.8,1.6-2.4,2.6c-0.5,0.6-1.1,1-1.5,1.1c-0.8,0.4-4.6,1.6-4.3-0.4l0,0c0-0.1,0-0.1,0.1-0.2l0,0
				c0-0.1,0-0.1,0-0.2c0.1-0.6-0.9-0.7-1-0.2c-0.1,0.2-0.1,0.4-0.2,0.6c-0.4,0.9-1.6,1.3-2.4,1.5c-0.4,0.2-0.9,0.2-1.4,0.2
				c-0.6,0.1-1,0-1.3-0.2c0.7-0.2,1.3-0.5,1.8-1c0.8-0.9,0.3-2.4-1-2.7c-1.1-0.3-2.8,1.2-2.9,2.3c-0.1,0.4,0,0.7,0.1,1
				c-0.9,0.4-1.8,0.9-2.7,1.4c-1,0.6-2.8,2-3.9,1.8c-1-0.2-1.6-2.5-2.9-2c-0.3,0.1-0.6,0.6-0.9,0.9c-0.4,0.3-1.3,1.1-1.9,0.9
				c-0.8-0.2-0.9-1.1-0.8-1.9c0.1-0.5-0.6-0.6-0.9-0.4c-0.8,0.6-1.7,1.1-2.5,1.7c-0.3,0.2-0.8,0.5-1.1,0.6c-0.9,0.2-1.1-0.8-1.1-1.7
				c0.1-0.3,0.1-0.6,0.2-1c0.1-0.6-0.9-0.7-1-0.2c-0.1,0.3-0.2,0.7-0.2,1.1c-0.5,2-2.1,3.4-3.8,4.6c-0.2-1.8-0.4-3.7-0.5-5.3
				c-0.1-0.4-0.8-0.9-0.9-0.4c-0.4,1.3-1.1,2-1.9,2.7c-0.8,0.7-1.5,0.8-2.2,0.3c-0.9-0.6-1.1-1-1.3-1.9c-0.1-0.6-0.9-0.4-1,0
				c0.3,0.9-0.3,2.4-1.8,2.2c-0.5-0.1-1.8-1.9-2.3-2c-1.1-0.3-2,0.5-2.7,1.3c-0.4,0.5-0.8,1-1.1,1.6c-0.2-2-0.6-4.1-1.3-6
				c-0.2-0.4-0.9-0.5-1,0c-0.4,2.1-3.2,2.9-4.6,4.3c-0.1,0.7,0.3,1.2,0.9,1.6c1.2-1.2,3.2-2.6,4.2-4.2c0.6,2,0.9,4.1,1,6.3
				c-1,2.4-1.5,3.4-1.2,5.9c0.1,0.6,1,2.4,1.2,1.7c0.8-2.4,1.1-4.9,1.1-7.4c0.4-0.9,0.9-1.8,1.5-2.6c0.6-0.9,1.7-1.7,2.9-0.4
				c1.5,1.6,3,0.3,3.8-0.6c0.4,1,1.1,1.9,2.2,1.9c1.4,0,2.9-1.6,3.9-2.9c0.1,1.6,0.3,3.2,0.4,4.8c-1.3,1-2.6,2-3.4,3.4
				c-0.4,0.8-0.8,1.4-0.8,2.3c0,1.2,2.2,3.8,3.2,5.3c0.2,0.3,0.7,0.4,0.9,0c1.6-3.1,1.7-7,1.3-10.8c1.6-1.1,3.1-2.2,4-3.8
				c0.3,0.6,0.8,1,1.6,0.9c1.2-0.1,2.6-1.1,3.8-2c0.2,1.1,0.8,2.1,2.1,1.8c0.9-0.2,1.6-0.6,2.4-1.2c0.1-0.1,0.5-0.6,0.6-0.6
				s0.8,1.3,1,1.5c1.3,1.7,2.6,0.6,4.1-0.3c1.5-0.8,2.9-1.7,4.4-2.3c0.1-0.1,0.2-0.1,0.3-0.1c1.5,1.2,4.7,1,6.5-0.5
				c0.1,0.1,0.1,0.2,0.2,0.3c0.7,0.6,2.7,0.1,3.6-0.1c0.5-0.2,1.2-0.4,2-0.6c-0.3,0.6-0.5,1.2-0.4,2c0.1,0.2,0.2,0.3,0.4,0.4
				c1.7,0.3,3.2-0.8,4.6-1.6l0,0c-0.1,0.8-0.1,1.6,0.6,1.8c1.2,0.5,3.2-0.9,3.7-2c1.9,0.2,3.4-0.3,4.8-1.3c-0.1,0.1-0.1,0.2-0.2,0.4
				c-0.4,1.1-0.7,2.3-1,3.3c-0.2,0.6,0.6,1.1,0.9,0.5c0.3-0.5,0.5-0.8,0.9-1.2c0.4-0.6,3.2-2.3,5-2.5c-0.3,1.2-0.3,2.6,1.1,3
				c1.2,0.4,2.9-0.8,4-1.9c-0.1,1,0.1,2.3,1.5,2c1.2-0.2,2.2-0.8,3.1-1.1c1.2-0.5,2.2-1,3.7-1.6c-0.2,1.1-0.1,2.3,1,2.6
				c1.2,0.4,3-0.6,4.4-1.4c-0.2,2,2.9,2.3,4.9,1.3c0.1,0.1,0.1,0.1,0.1,0.2c0.2,0.3,0.4,0.4,0.6,0.6c-0.3,0.3-0.5,0.6-0.8,0.9
				c-1.2,1.5-1,2.5,0.4,3.4c1.4,0.8,1.7-0.7,1.9-1.7c0.2-0.7,0.2-1.6,0.3-2.6l0,0c1-0.8,2-1.5,2.9-2.3c-0.1,1.1,0.3,1.9,1.6,2.1
				c1.3,0.2,2.7-0.4,3.3-1.3c0.9,0,1.7-0.2,2.3-0.7c0.9-0.6,1-0.8,1.6-1.7c-0.2,1.5-0.3,2.4-0.5,3.8c-0.2,0.6,0.9,1,1,0.3
				c0.2-1.1,0.5-2,1.1-3.4c0.3-0.9,2.3-2.4,3.8-3.3c0.7-0.4,2.6-1.8,3.5-1.5c0,0.6-0.4,1.6-0.8,2.1c-0.6,1-1.8,1.8-2.9,2.4
				c-0.5,0.3-0.2,1.1,0.4,1c1.2-0.2,2,1.1,3,1.6c1,0.4,1.8,0.1,2.7-0.3c0.7,1.3,3.9,0.1,5.9-0.7c-0.2,0.5-0.2,1-0.2,1.5
				c0,0.2,0.2,0.5,0.4,0.5c1.7,0.3,2.7-0.6,3.9-1.6c0.8-0.6,0.9-1.2,0.9-1.2S152.6,132.9,152.3,133.1 M36.4,141.5
				c0.1,2.3,0.5,5.1-0.8,7.9c-0.4-0.6-1.3-2.2-1.8-2.9c-0.3-0.5-0.8-1.7-0.8-2.2c0-0.8,1.9-3.3,2.9-4c0.2-0.1,0.3-0.2,0.4-0.3
				C36.4,140.4,36.4,141,36.4,141.5 M64.1,130.5c0.1,0.3-1,1.1-1.8,1.1C61.7,130.4,63.4,129,64.1,130.5 M117.8,139.1
				c-0.9-0.3-1.1-0.8-0.8-1.5c0.3-0.4,0.8-0.9,1.2-1.2C118.6,137.1,118,138.9,117.8,139.1 M144.4,133.6c-1.3-0.2-0.9-1.8-0.1-2.5
				c1.5-1.3,2.5,0.1,2.9,1.5c-0.1,0.1-0.2,0.1-0.4,0.1C146.2,132.9,144.8,133.7,144.4,133.6"/>
		</g>
	</g>
	<g>
		<g>
			<defs>
				<rect id="SVGID_129_" x="-140" y="-60" width="453" height="320.3"/>
			</defs>
			<clipPath id="SVGID_130_">
				<use xlink:href="#SVGID_129_"  style="overflow:visible;"/>
			</clipPath>
			<path class="st64" d="M81.8,33.6c0.2-0.2,0.3-0.7,0.2-1c-0.1-0.8-0.3-1.6-1.1-1.9c-0.1-0.1-0.2-0.2-0.2-0.3
				c-0.7-0.7-2.7-2-2.9-2.2c-2.2-1.3-4.6-1.6-7-1c-0.1,0.1-2.2,0.5-2.9,1.2c-0.4,0.4-0.4,0.9-0.3,1.3c0.2,0.6,0.4,1.2,0.6,1.9
				c0.2,0.4,0.4,0.8,0.6,1.1c0.5,0.5,1.1,1,1.7,1.5c0.3,0.2,0.5,0.5,0.8,0.7c0.5,0.3,1.1,0.5,1.7,0.7c1.1,0.4,2.1,0.3,3.1-0.1
				c0.6-0.3,0.7-0.5,0.3-1.1c0,0,0-0.1,0-0.2c0.7-0.1,1.4-0.6,2.2-0.1c0.2,0.1,0.4,0.1,0.6,0.1c0.4,0.1,0.8-0.1,0.5-0.8
				c0.3,0.1,0.4,0.1,0.5,0.2C81,34.1,81.5,33.8,81.8,33.6 M73.8,32.3c0.1,0.4,0.1,0.8,0.1,1.2C73.3,33.2,73.2,32.7,73.8,32.3
				 M76.7,32c-0.9-0.4-1.7-0.4-2.6-0.4c-0.2,0-0.5,0-0.7-0.1c-0.2-0.1-0.4-0.2-0.4-0.3c0.1-0.2,0.2-0.4,0.3-0.5
				c0.8-0.4,1.7-0.6,2.6-0.3c0.6,0.2,1.2,0.5,1.6,1.1c0.1,0.2,0.2,0.4,0.3,0.7C77.3,32.1,76.9,32.1,76.7,32"/>
		</g>
	</g>
	<g>
		<g>
			<defs>
				<rect id="SVGID_131_" x="-140" y="-60" width="453" height="320.3"/>
			</defs>
			<clipPath id="SVGID_132_">
				<use xlink:href="#SVGID_131_"  style="overflow:visible;"/>
			</clipPath>
			<path class="st65" d="M75.1,43.4c-1.3-0.8-2-1.3-3.1-2.4c-0.5-0.5-1.2-0.9-1.8-1.3c-0.3-0.2-0.6-0.2-0.7,0.3c-0.3,1-1,1.6-2,1.5
				c-0.6-0.1-1.3-0.2-1.9-0.3c-1.1-0.2-2.3-0.5-3.3-0.8c-0.9-0.2-1.2,0.1-1.3,1c-0.1,0.4-0.2,0.7-0.6,0.6c-0.2,0-0.3,0.1-0.4,0.1
				c-1.1,0.5-2.2,2.4-1.9,3.7c0.3,1.7,0.6,3.4,1.1,5.1c0.3,1.2,0.7,2.4,1.1,3.7c0.1,0.2,0.2,0.3,0.2,0.5c0.1,0,0.1,0,0.2,0
				c0.1-0.2,0.2-0.4,0.2-0.6c0.4-1,0.7-2,1.1-3.1c0.1-0.1,0.2-0.2,0.3-0.2c0.1,0,0.2,0.2,0.2,0.3c0.1,0.4,0.1,0.8,0.1,1.2
				c-0.1,1.3,0.5,2.3,2,2.4c1.5,0.2,2.7-0.3,4.1-0.6c1.8-0.4,2.3-1.7,2.3-3.3c0-0.2-0.1-0.4-0.2-0.4c-0.6-0.2-1.2-0.3-1.8-0.3
				c-0.6,0-1.3,0.3-1.9,0.4c-1.1,0.1-2.3,0.2-3.5,0.2c-0.2,0-0.3-0.3-0.4-0.4c0.2-0.1,0.3-0.3,0.5-0.3c0.4,0,0.9,0,1.2,0.2
				c0.8,0.3,1.5,0.2,2.2,0c0.9-0.3,1.8-0.5,2.7-0.8c1.2-0.3,2.5-1,3.7-0.9C76.2,49.1,76.8,44.4,75.1,43.4 M62.4,46
				c-0.4,0.4-0.8,0.8-1.3,1.2c0-0.2-0.1-0.3-0.1-0.4c0.1-0.7,0.2-1.4,0.4-2c0.1-0.4,0.4-0.9,0.6-1.2c0.2-0.3,0.4-0.1,0.4,0.1
				c0.1,0.6,0.2,1.3,0.2,1.9C62.6,45.7,62.5,45.8,62.4,46 M67.9,48.5c-1,0.2-2.1,0.4-3.1,0.5c-0.5,0.1-1,0.1-1.4,0
				c-0.2,0-0.4-0.2-0.6-0.3c1.1-1,5.2-1.4,6.5-0.6C68.8,48.3,68.3,48.5,67.9,48.5 M71.8,45.9c-0.1,0.4-0.2,0.6-0.6,0.6
				c-1.6,0-3.1-0.4-4.6-0.9c-0.1,0-0.1-0.1-0.3-0.3c0.3-0.1,0.5-0.2,0.7-0.2c0.5-0.1,0.8-0.4,1-0.8c0.4-0.6,0.8-1.2,1.2-1.8
				c0.1-0.2,0.5-0.3,0.6-0.2C70.8,42.7,71.9,45,71.8,45.9"/>
		</g>
	</g>
	<g>
		<g>
			<defs>
				<rect id="SVGID_133_" x="-140" y="-60" width="453" height="320.3"/>
			</defs>
			<clipPath id="SVGID_134_">
				<use xlink:href="#SVGID_133_"  style="overflow:visible;"/>
			</clipPath>
			<polyline class="st66" points="83,80.7 83,80.7 83,80.7 83,80.7 			"/>
		</g>
	</g>
	<g>
		<g>
			<defs>
				<rect id="SVGID_135_" x="-140" y="-60" width="453" height="320.3"/>
			</defs>
			<clipPath id="SVGID_136_">
				<use xlink:href="#SVGID_135_"  style="overflow:visible;"/>
			</clipPath>
			<path class="st67" d="M120.9,106.5L120.9,106.5"/>
		</g>
	</g>
	<g>
		<g>
			<defs>
				<rect id="SVGID_137_" x="-140" y="-60" width="453" height="320.3"/>
			</defs>
			<clipPath id="SVGID_138_">
				<use xlink:href="#SVGID_137_"  style="overflow:visible;"/>
			</clipPath>
			<path class="st68" d="M61.4,101.7L61.4,101.7c-0.2-0.1-0.5,0.1-0.4-0.2c0.1-0.3,0.3-0.1,0.5-0.1c0.1,0.1,0.2,0.1,0.3,0.2
				c0.1,0,0.2,0.1,0.3,0.1c0.2-0.1,0.4-0.2,0.5-0.3c2.7-1.5,6.5-3.7,10.8-5.4c-0.1-0.1-0.1-0.2-0.1-0.3c0-0.6,0.2-0.9,0.6-0.9
				c0.4,0,0.8,0.3,0.9,0.6c1.2-0.5,2.5-0.9,3.8-1.2c0.1-0.3,0.2-0.6,0.2-1c0.2-1.1,0.8-2.1,1.4-3c-0.2-0.5,0.4-0.6,0.6-0.9
				c0.2-0.4,0.3-0.8,0.3-1.2c0-0.4,0.1-0.6,0.6-0.7c0.5,0,0.7,0.2,0.5,0.7c-0.4,0.9-0.5,1.7-0.3,2.6c0.2,0.7-0.3,1.2-0.9,1.6
				l-0.1,0.1c-0.2,0.5-0.6,0.8-0.9,1.2c-0.1,0.1-0.2,0.2-0.2,0.3c2.3-0.5,4.6-0.9,7-0.9c10.8,0,21,7,27.9,10.8
				c2.2,1.2,4.3,1.8,6.1,2.2c-0.1-0.5-0.3-0.9-0.7-1.3c-0.2-0.2-0.4-0.5-0.5-0.9c-0.2-0.6-0.3-1.2-0.4-1.8c-0.2-1-0.2-2.1-0.9-3
				c-0.6-0.9-1-1.7-1.3-2.8c-0.6-2.5-1.3-4.9-2.5-7.2c-0.3-0.5-0.7-0.9-1-1.2c-0.1,0.1-0.2,0.1-0.3,0.2c0.1,0.2,0.2,0.5,0.3,0.7
				c0.1,0.2,0.2,0.3,0.3,0.4c0.3,1.1,3.1,8.4,1.1,9.2c-2.9,1.1-7.9-7.7-8.3-8.3c-0.6-0.9-3-3.6-3.5-4.2c-0.4-0.5-4-3.3-4.1-3.5
				c-0.2-0.2-0.4-0.5-0.6-0.6C98,81.5,95.3,80,95,79.9c-0.2-0.1-3.1-1.2-3.1-1.2c-0.8-0.2-1.8-0.4-3-0.6c0.2,0.1,0.4,0.3,0.6,0.4
				c0.1,0,0.2,0.1,0.3,0.1c0.3,0.1,0.6,0,0.8,0.4c-0.5,0.1-1,0.1-1.5,0.1c-0.1,0-0.3,0-0.3,0.1c-0.2,0.3-0.3,0.2-0.4,0
				c-0.5-0.7-0.7-0.7-1.3-0.1c-0.3,0.2-0.6,0.4-0.9,0.1c-0.6-0.5-1.2-0.3-1.9-0.2c-0.3,0.1-0.4,0.3-0.4,0.5c0,0.4,0.3,0.5,0.7,0.4
				c0,0.1,0,0.1,0,0.1v0.1c0.3,0,0.5,0,0.8,0.1l0,0c0.1-0.1,0.1-0.1,0.2,0c0.4,0.2,0.7,0.4,1.1,0.7c0.2,0.1,0.3,0.3,0.3,0.5
				c-0.1,0.5-0.5,0.5-0.9,0.8c-0.4-0.1-0.7-0.2-1-0.3c-0.3-0.2-0.5-0.2-0.8,0.1c-0.2,0.1-0.3,0.2-0.5,0.3l0,0
				c-0.8,0.4-1.7,0.9-2.5,1.3c-0.2,0.1-0.3,0.2-0.5-0.1c-0.1-0.2,0-0.3,0.2-0.5c0.2-0.1,0.3-0.3,0.5-0.4c0.5-0.2,0.5-0.5,0.2-0.8
				c-0.8,0.4-1.6,0.8-2.2,1.6c-0.5,0.8-1.4,1.1-2,1.7c-0.2,0.2-0.4,0.1-0.6-0.2c-0.2-0.3-0.4-0.6-0.5-0.9l0.1-0.1l0,0
				c0,0,0,0.1-0.1,0.1c-0.2-0.1-0.4-0.1-0.5-0.3c-0.2-0.2-0.4-0.4,0-0.6c0.1-0.1,0.2-0.1,0.2-0.2l0,0c0.4-0.5,0.8-0.3,1.2-0.1l0,0
				c0.5,0.3,1,0.1,1.5,0.1c0-0.3,0.1-0.6-0.1-0.9c-0.2-0.4,0.2-0.6,0.3-0.9c0.1-0.2,0.2-0.3,0.4-0.4l0,0c0.3-0.2,0.6-0.6,1-0.8
				c0.2-0.1,0.2-0.3,0.2-0.5c-0.1-0.1-0.1-0.2-0.1-0.3c0.2,0.1,0.4,0.2,0.6,0.1c0-0.1-0.1-0.3,0.1-0.4l0,0c0.1-0.2-0.1-0.6,0.4-0.4
				c0,0.2,0.1,0.3,0.3,0.4c0.2,0,0.4,0,0.6,0c0.3-0.2,0.6-0.1,1-0.1c0.1,0,0.1,0,0.1,0c0-0.1,0-0.1,0-0.1c-0.1,0-0.1,0-0.2-0.1
				c-0.6,0.1-1.2-0.2-1.8-0.3c-0.3-0.1-0.5-0.1-0.8-0.1c0.6-0.3,1.2-0.1,1.9,0c1,0.2,1.9,0.1,2.9,0.1c0.1,0,0.2,0,0.4,0
				c0.2-0.2,0.5,0.1,0.8-0.1c0.5,0,1.1-0.2,1.6-0.3c-2.2-0.4-4.7-0.6-6.8-0.3c-0.2,0.1-1.9,0.5-2.2,0.6c-0.1,0-0.3-0.1-0.4-0.2
				c0.1-0.2,0.2-0.4,0.3-0.6c0.8-1.3,1.7-2.6,2.4-4c0.5-1,0.9-2.2,1.7-3.1c0.5-0.6,1-1.5,1.3-2.2c0.3-0.9,0.6-1.8,1.1-2.6
				c0.6-1.1,1.6-1.6,2.4-2.4c0.3-0.3,1.2-0.9,1.6-1.1c0.5-0.3,0.9-0.6,1.4-0.9c1-0.4,2-0.6,3-0.9c0.1-0.1,0.3-0.1,0.4-0.2
				c0.7-0.4,1.9-0.4,2.5,0.1c0.6,0.5,1.2,1.1,1.8,1.6c0.4,0.3,0.8,0.5,1.1,0.8c0.6,0.5,1.3,0.8,1.6,1.6c0,0.1,0.1,0.1,0.1,0.1
				c0.6,0.8,1.1,1.5,1.7,2.3c0.2,0.3,0.5,0.6,0.8,0.9c0.1,0.1,4.5,8.7,4.6,8.7c0-0.1,0-0.2,0-0.3c-0.2-0.5-4.5-8.7-4-9.1
				c0.2-0.2,0.2-1.3,0.3-1.6c0.5-1.6,1.9-2.1,3-3c0.3-0.3,0.7-0.4,1-0.8c0.8-0.9,1.5-1.8,2.3-2.7c0.4-0.5,1.1-1,1.3-1.6
				c0.8-1.6,1-3.2,0.1-4.8c-0.7-1.2-0.9-2.5-0.6-3.9c0.3-1.3,0.6-2.6,1-3.9c0-0.1,0.1-0.2,0.1-0.2c-0.7,0.6-1.8,1.3-3.5,1.8
				c-3.3,1.1-7.7,1.3-7.7,1.3c-0.2-0.1,0.3-1.8,0.4-2c0.1-0.3,0.1-0.7-0.5-0.8c0.4-0.3,0.5-0.5,0.4-0.9c0-0.1,0-0.1,0-0.2
				c-0.2,0-0.4-0.1-0.6-0.1c-0.2,0.4-0.3,0.8-0.5,1.2c-0.1,0.1-0.2,0.2-0.3,0.1c-0.2-0.1-0.3-0.1-0.2-0.4c0.1-0.4,0.1-0.8,0.2-1.2
				c-2.9-1-4.3-3.9-5-6.7c3.8,5.3,7.8,4.2,7.8,4.2c0.3-0.5,0.4-1.1,0.6-1.6c0.1-0.3,0-0.5-0.3-0.6c-1.1-0.3-2.2-1.2-2-2.6
				c0.1-0.4,0-0.9,0.1-1.3c0.1-0.3,0.2-0.7,0.4-1s0.6-0.4,0.9-0.5c0.6-0.3,1.6,0.1,1.7,0.8c0,0.1,0,0.3-0.1,0.3
				c-0.1,0.1-0.3,0.1-0.4,0c-0.2-0.1-0.3-0.2-0.5-0.3c-0.3-0.2-0.6-0.3-0.9-0.1c-0.3,0.2-0.1,0.5,0.1,0.7c0,0,0,0,0,0.1
				c0.3,0.4,0.6,0.9,0.9,1.3c0.1,0.2,0.4,0.4,0.5,0c0.2-0.4,0.3-0.9,0.9-0.8l0.1-0.1c0.4-0.1,0.7-0.2,1.1-0.3c0.1,0,0.3,0.1,0.4,0.2
				c0.3,0.3,0.5,0.3,0.6-0.2c0.1-0.4,0.2-0.7,0.5-1c0.4-0.6,1.1-0.8,1.7-0.8c0.2,0,0.4,0.2,0.5,0.4c0.2,0.2,0.2,0.4,0.3,0.7
				c0.1,0.3,0.3,0.4,0.5,0.2c0.3-0.2,0.6-0.3,1-0.5c0.4-0.3,0.6-0.3,1,0.1c0.1,0.1,0.2,0.2,0.4,0.4c0.1-0.4,0.5-0.2,1,0.2
				c0-0.2,0-0.3,0-0.4c-0.4-1-0.9-1.9-1.3-2.9c-0.3-0.7-0.6-1.5-0.8-2.2c-0.2-1.8-1.1-3.4-2-4.9c-0.5-0.8-1-1.5-1.5-2.3
				c-1.1-1.8-2.4-3.4-4-4.8c-1.3-1.1-2.6-2-4-3c-1.6-1.1-3.2-2.3-4.8-3.3c-0.2-0.1-1.5-1-1.9-1.1c-0.4-0.2-0.9-0.4-1.2-0.6
				c-1-0.7-1.9-0.8-3-1.4c-1-0.6-5.2-0.9-5.6-0.9c-1.2,0-2.4,0-3.6,0.1c-3.4,0.2-6.6,1.1-9.5,2.9c-0.9,0.5-1.7,1.1-2.5,1.6
				c-0.6,0.4-1.2,0.5-1.9,0.3c-2.3-0.8-4.5-0.6-6.5,0.9c-1.6,1.2-3.1,2.5-4.6,3.8c-0.7,0.6-1.3,1.5-1.8,2.3
				c-0.6,0.9-1.1,1.9-1.6,2.9c-0.1,0.2-0.2,0.5-0.1,0.7c0.1,0.5,0.1,1.4,0.5,1.9c0,0.3-0.1,0.7,0,0.9c0.3,0.5,0.3,1,0.2,1.6
				c-0.1,0.8-0.2,1.7-0.1,2.5c0.2,1.9,0.6,3.8,1,5.7c0.1,0.5,0.4,1,0.7,1.3c0.1,0.2,0.4,0.3,0.6,0.3c-0.1,0.5,0,0.9-0.2,1.3
				c-0.3,0.8,0.1,1.3,0.4,1.9c0.3,0.5,0.6,0.8-0.1,1.2c0.4,0.3,0.6,0.5,1,0.8c0.2-0.4,0.4-0.8,0.5-1.2c0.2-0.6,0.4-1.3,0.6-2
				c0.2-0.6,0.3-1.1,0.5-1.7c0.1-0.2,0.3-0.4,0.4-0.6c0.2,0.2,0.4,0.3,0.4,0.5c0.3,0.5,0.8,1,1.3,0.8c0.7-0.3,1.4-0.3,2-0.9
				c0.9-0.8,1.5-1.8,2-2.8c0.6-1.2,0.5-2.6,0.6-4c0.1-0.6-0.6-1.2-1.3-1.2s-1.4-0.1-2-0.2c-0.9-0.2-1.7,0.1-2.3,0.8
				c-0.3,0.4-0.5,0.8-0.8,1.2c-0.3,0.5-0.5,1-0.6,1.4c0-0.6-0.1-1.2,0-1.9c0.3-1.3,0.8-2.5,1.1-3.8c0.9-3.2,2.7-5.6,5.3-7.6
				c1.5-1.2,3.1-2.3,4-4c0.3-0.5,0.8-0.6,1.2-0.5c1.2,0.4,2.5,0.5,3.5,1.3c0.2,0.1,0.4,0.2,0.6,0.2c0.4,0.1,0.6,0.3,0.8,0.6
				c0.2,0.4,0.4,0.8,0.7,1.1c1.1,1,2.3,2,3,3.3c0.1,0.1,0.1,0.1,0.2,0.2c1.2,1.2,1.9,2.7,2.9,4.1c0.5,0.9,0.9,1.8,1.3,2.7
				c0.8,1.7,1.8,3.3,3.1,4.7c0.2,0.2,0.5,0.6,0.4,0.8c-0.3,0.7,0.1,1.3,0.1,1.9c-0.1,0.4,0,0.9-0.1,1.3c-0.1,0.5-0.2,1-0.4,1.5
				c-0.1,0.3-0.2,0.6-0.3,0.9c-0.1,1.5,0,3.1,0.1,4.4c0.3,2.7,1.6,4.5-1.3,7.7c-2.8,3-7.6,5-10.4,5.6c-0.3,0.1-0.5,0.2-0.8,0.2
				c-0.2,0-0.4,0.2-0.5,0.2c-0.9,0.5-1.8,1-2.9,1c-1,0-2.1,0.1-3.1,0.1c-1.1,0.1-2.1,0-3,0.7c-0.4,0.3-0.8,0.5-0.8,1.1
				c0,0.6,0.2,1.2,0.8,1.5c1.5,0.8,3.1,1.5,4.8,1.5c1,0.1,1.8,0.4,2.4,1.2c0.5,0.6,1.1,1.2,1.5,1.9c0.5,1.1,0.9,2.2,1.2,3.3
				c0.6,2.2,1.5,4.4,1.5,6.7c0,1.1,0,2.3-0.4,3.3c0.1,0.1,0.1,0.2,0.1,0.3c0,0.3,0.2,0.4,0.5,0.4c0.3,0.1,0.5,0.1,0.8,0.1
				c0.2,0,0.4,0,0.5,0.2c0.1,0.2-0.2,0.3-0.4,0.4c-0.4,0.2-0.8,0.4-1.2,0.5c-0.2,0.1-0.4,0.2-0.4,0.4c0.1-0.1,0.2-0.3,0.4-0.2l0,0
				c0.2-0.3,0.5-0.4,0.9-0.5c-0.3,0.3-0.5,0.5-0.9,0.6c-0.1,0.3-0.5,0.3-0.6,0.6c0,0.3-0.3,0.3-0.5,0.4c-0.2,0-0.5-0.1-0.6,0.3
				c0.1,0.1,0.2,0.2,0.3,0.3l0,0c0.1,0,0.2,0.1,0.2,0.1c0.6,0.1,1,0.3,1.1,1c0.1,0.6,0.2,1.3-0.1,2c-0.2,0.2-0.3,0.3-0.5,0.5
				c-0.2,0.3-0.4,0.5-0.7,0.6c-0.2,0.2-0.5,0.3-0.8,0.3c-0.2,0.1-0.5,0-0.5-0.3c-0.1-0.3,0.2-0.3,0.4-0.4c0.2-0.1,0.5,0.1,0.4-0.4
				c-0.2-0.1-0.5,0.1-0.6-0.3c-0.4-0.3-0.3-0.9-0.3-1.3c-0.1-0.6-0.2-1.3,0.3-1.9c0.1-0.2,0.3-0.2,0.5-0.3c0-0.4-0.2-0.4-0.4-0.2
				c-0.5,0.4-1,0.9-1.3,1.3c-0.4,0.5-0.9,0.9-1.5,1c0.1,0.1,0.1,0.2,0.2,0.2c0.3,0.2,0.6,0.3,0.4,0.6c-0.2,0.3-0.5,0.2-0.8,0.1
				c-0.4-0.1-0.7-0.2-1,0.2c-0.1,0.2-0.2,0.4-0.3,0.6c0.2,0.3,0.3,0.6,0.6,0.9c0.4-0.1,0.8-0.5,1.2-0.4c0.4,0.1,0.6,0.2,0.3,0.6
				c-0.1,0.4-0.4,0.7-0.6,1c-0.2,0.3-0.4,0.3-0.7,0.1c-0.3-0.1-0.5-0.3-0.6-0.5C67,88,66,88.6,66,89.4c0,0.2,0.1,0.4-0.1,0.5
				c-0.1-0.6-0.1-1.2,0.4-1.7c0.1-0.1,0.1-0.3,0.1-0.4c0-0.2,0-0.4,0.2-0.5c0.5-0.3,0.8-0.8,1-1.2c0.2-0.3,0.2-0.3,1.7-0.3
				c-0.1-0.4-0.5-0.4-0.5-0.8c-0.1-0.3,0.2-0.3,0.3-0.3c0.3,0,0.5-0.1,0.7-0.3c0.4-0.6,1-1,1.5-1.5c0.3-0.4,0.7-0.5,1.2-0.5
				c0.3,0,0.7,0.1,0.9-0.2c0-0.1,0-0.2,0-0.4c-0.1-0.2-0.1-0.5-0.1-0.7c0-0.1-0.1-0.3-0.1-0.3c0.4-0.4,0.4-0.8,0.4-1.2
				c-0.2,0.3-0.3,0.5-0.5,0.7c-0.1,0.1-0.2,0.2-0.2,0.3c-0.2,0.8-0.9,1.1-1.4,1.6c-1.3,1.1-2.6,2.2-3.8,3.4
				c-1.2,1.2-1.8,2.8-2.5,4.4c-0.2,0.5-0.6,1-0.9,1.4c-0.4,0.5-0.8,0.9-1.1,1.4c-0.8,1.2-1.7,2.3-2.9,3.2c-0.8,0.6-1.6,1.3-2.4,1.9
				c-0.2,0.2-0.4,0.3-0.6,0.4c-0.5,0.3-1.1,0.6-1.7,0.9c-0.3,0.2-1,0.5-1.2,0.6c-1.2,0.6-2.3,1.5-3.2,2.6c-1,1.2-2,2.4-3,3.7
				c-0.1,0.1-0.1,0.2-0.1,0.3h0.2c3.2-0.6,8.2-1.9,13.4-4.6C61.5,101.8,61.4,101.8,61.4,101.7 M83.4,89.7c0.1-0.3,0.3-0.5,0.4-0.8
				c0.2-0.4,0.7-0.5,1.1-0.3c0.4,0.3,0.3,0.5,0.1,0.9c-0.2,0.3-0.3,0.6-0.6,0.9c-0.2,0.4-0.6,0.5-1,0.3C83.1,90.4,83.2,90,83.4,89.7
				 M77.9,90.6c-0.2,0-0.7-0.9-0.6-1.1c0.1-0.3,0.3-0.5,0.5-0.5c0.4-0.1,0.9,0.4,0.9,0.9C78.7,90.3,78.4,90.6,77.9,90.6 M76.7,85.9
				c0.5,0.1,0.7-0.3,0.9-0.6c0.2-0.3,0.5-0.6,0.9-0.8c0.3-0.2,0.6,0.1,0.6,0.4c0,0.8-0.4,1.2-1.1,1.4c-0.4,0.1-0.8,0.2-1.2,0.3
				c-0.2,0.1-0.5,0.2-0.5-0.2C76.2,86.3,76.3,85.9,76.7,85.9 M100.3,46.4c0.1-0.1,0.3-0.2,0.4-0.3c0,0.1,0.1,0.2,0.1,0.3
				c-0.1,0.2-0.3,0.4-0.5,0.2C100.3,46.6,100.3,46.5,100.3,46.4 M59.3,35c-0.1,0-0.2-0.2-0.2-0.2c0.1-0.3,0.3-0.5,0.4-0.9
				c0.1,0.5,0.2,0.8,0.5,1.1C59.8,34.9,59.6,35,59.3,35 M59.6,30.6c0.6-0.2,1.2,0,1.7,0.5c-1,0.5-2.3-0.2-3.1,0.9
				C58.4,31.2,59,30.8,59.6,30.6 M57.9,33.1c0.6-1.4,2.5-2.2,4-0.8c0.1,0.1,0.2,0.3,0.2,0.4c-0.2,0.1-0.3,0.2-0.4,0.2
				c-0.7,0.1-1.3,0.2-2,0.3c-0.3,0.1-0.4,0.1-0.5,0.4c-0.1,0.3-0.5,0.6-0.8,0.8c-0.4,0.3-0.5,0.6-0.1,1.3c-0.6,0.2-1.5,0.4-2.3,0.2
				c0-0.2,0.5-0.1,0.5-0.1C57.3,35.1,57.6,34.1,57.9,33.1 M61.5,15.2c-2.1,1-3.4,3.4-5.5,4.8c-2,1.4-1.2,0.3-0.1-1.2
				c1.1-1.5,1.5-2.6,5.2-4.8s5.5-1.1,5.5-1.1C68.4,13.2,63.6,14.2,61.5,15.2 M91.1,47.7c0.6-0.6,0.8-1.1-0.3-1.7
				c0.5-0.5,1.4-1,1.9,0.4C92.9,47.6,92,47.9,91.1,47.7 M79.1,11.2c-2.8-1.5-8.1,2.9-9.2,1.6c0,0,3.5-3.9,11.7-3
				c8.2,0.9,12.3,6.5,12.3,6.5s1.1,1.8,0.4,3.4c-1.9-3-4-6.5-7.5-6.5C85.7,13.1,82,12.7,79.1,11.2 M81.6,15.6c0,0,5.6,1.1,7.7,3.2
				c2.1,2.2,2.5,6.2,2.5,6.2s-0.7-3.5-4.1-5.8C84.1,17.1,81.6,15.6,81.6,15.6 M75.1,81.2c0.4-0.3,1-0.2,1.5-0.3c0.1,0,0.2,0,0.2,0
				c0.5,0.7,0.7,0.1,0.9-0.2c0.2-0.4,0.6-0.5,0.9-0.8c-0.7,0-1.3,0.4-2.1,0.2c0.7-0.5,1.5-0.9,2.3-1.2c0.3-0.1,0.5-0.1,0.8,0.1
				c0.2,0.2,0.1,0.4,0,0.6c-0.1,0.1-0.1,0.1-0.1,0.1c-0.6,0.6-1.3,1.1-1.9,1.7c-0.4,0.4-1.1-0.1-1.6-0.1
				C75.5,81.2,75.3,81.2,75.1,81.2 M72.6,91.6c0.1,0,0.2,0,0.3,0c0.7-0.2,1.3-0.5,2-0.7c0.8-0.2,1,0,1,0.7c0.1,0.6-0.1,1.1-0.7,1.3
				c-0.3,0.2-0.6,0.2-1,0.1c-0.4-0.1-0.9-0.1-1.3-0.1c-0.1,0-0.2,0.1-0.2,0.1c-0.3-0.1-0.8,0.3-0.9-0.4C71.7,92,72,91.7,72.6,91.6
				 M69.9,94.8c0.2-0.5,0.3-0.9,0.5-1.4c0.1-0.4,0.4-0.5,0.8-0.4c0.3,0.1,0.6,0.3,0.5,0.8c-0.2,0.4-0.3,0.8-0.4,1.1
				c-0.1,0.4-0.4,0.6-0.9,0.6C69.8,95.5,69.7,95.3,69.9,94.8 M62.9,97.3c-0.1,0.1-0.1,0.1-0.1,0.2c-0.2,0.9-0.2,0.9-1.1,0.8
				c-0.4-0.1-0.3-0.4-0.2-0.6s0.3-0.2,0.5-0.4c0.1-0.2,0.2-0.3,0.4-0.3c0.2-0.2,0.3-0.2,0.5-0.1C63.2,97,63,97.2,62.9,97.3
				 M66.8,97.6c-0.4-0.3-0.8-0.7-0.9-1.2c-0.1-0.1-0.1-0.3,0.2-0.3c0.1-0.1,0.3-0.1,0.3,0.1c0.2,0.5,0.3,1,0.7,1.3
				C67,97.8,66.9,97.8,66.8,97.6 M68,91.8c0.1-0.4-0.1-0.8,0.5-0.8c0.2,0,0.9,0.9,0.9,1.2c0,0.2-0.3,0.4-0.6,0.4
				C68.2,92.6,68,92.3,68,91.8 M65.7,94.9c0.1-0.2,0.2-0.3,0.4-0.2c0.5,0.3,1.1,0.1,1.6-0.1c0.6-0.1,1,0.1,0.9,0.5
				c-0.1,0.9-0.1,0.9-0.9,0.6c-0.6-0.2-1.2-0.3-1.8-0.5C65.7,95.3,65.7,95.1,65.7,94.9 M60.2,98.7c-0.1,0.1-0.1,0.1-0.1,0.1
				c-0.2,1.1-0.4,2.2-1,3.2c-0.1,0.1-0.2,0.3-0.3,0.3c0.2-0.3,0.3-0.6,0.5-0.9c0.2-0.2,0.2-0.5,0-0.7c-0.4-0.3-0.5-1-0.2-1.3
				c0.8-0.8,1.4-1.7,2.4-2.3c0.1-0.1,0.2-0.3,0.4-0.4c0.2-0.3,0.3-0.6,0.6-0.9c0.1-0.2,0.1-0.4,0.3-0.4c0.7,0,1-0.5,1.4-1
				c0-0.1,0-0.2,0-0.2C64,94.3,64,94.2,64,94.1c0-0.1,0.1-0.1,0.1-0.2l0,0c0.1-0.7,0.4-1.3,0.5-2c0,0.2,0,0.3,0,0.4
				c0.1,0.1,0.1,0.1,0.2,0.2c0.2,0.2,0.6-0.1,0.6,0.4c0,0.5,0.1,1-0.5,1.3c0.2,0.5-0.2,0.4-0.5,0.5c-0.4,0.7-1.3,0.8-1.8,1.3
				c-0.3,0.6-0.5,1.3-1.2,1.6c-0.2,0.3-0.5,0.5-0.7,0.8C60.5,98.5,60.4,98.7,60.2,98.7"/>
		</g>
	</g>
</g>
</svg>
