<svg xmlns="http://www.w3.org/2000/svg" xmlns:xlink="http://www.w3.org/1999/xlink" id="Layer_1" x="0px" y="0px" viewBox="0 0 115 67.4" xml:space="preserve"><g>	<path id="Path_375" fill="#233773" d="M0,35.3v-7.4h3v7.3c0,2.5,1.1,3.5,2.9,3.5c1.9,0,2.9-1,2.9-3.5v-7.3h3v7.4c0,3.9-2.2,6-6,6  S0,39.1,0,35.3"></path>	<path id="Path_376" fill="#233773" d="M27.1,27.9V41h-2.5l-6.6-8v8h-3V27.9h2.5l6.5,8v-8H27.1z"></path>	<rect id="Rectangle_53" x="30.4" y="27.9" fill="#233773" width="3" height="13.2"></rect>	<path id="Path_377" fill="#233773" d="M49.4,27.9L43.7,41h-3L35,27.9h3.3l4,9.4l4.1-9.4H49.4z"></path>	<path id="Path_378" fill="#233773" d="M61.1,38.6V41H50.9V27.9h9.9v2.4h-6.9v2.9H60v2.4h-6.1v3H61.1"></path>	<path id="Path_379" fill="#233773" d="M72.2,41l-2.5-3.7h-2.8V41h-3V27.9h5.7c3.5,0,5.7,1.8,5.7,4.8c0.1,1.8-1,3.5-2.7,4.2l3,4.2  L72.2,41 M69.3,30.4h-2.5V35h2.5c1.9,0,2.8-0.9,2.8-2.3C72.1,31.2,71.2,30.4,69.3,30.4"></path>	<path id="Path_380" fill="#233773" d="M76.8,39.7l1-2.3c1.3,0.9,2.8,1.4,4.3,1.4c1.8,0,2.5-0.6,2.5-1.4c0-2.5-7.7-0.8-7.7-5.7  c0-2.2,1.8-4.1,5.5-4.1c1.6,0,3.2,0.4,4.6,1.2l-0.9,2.3c-1.1-0.7-2.4-1-3.6-1c-1.8,0-2.5,0.7-2.5,1.5c0,2.4,7.7,0.8,7.7,5.6  c0,2.2-1.8,4.1-5.6,4.1C80.3,41.3,78.4,40.8,76.8,39.7"></path>	<path id="Path_381" fill="#F29906" d="M100.3,38.6V41H90.1V27.9h9.9v2.4h-6.9v2.9h6.1v2.4h-6.1v3H100.3"></path>	<path id="Path_382" fill="#F29906" d="M115,27.9V41h-3v-5.4h-6V41h-3V27.9h3v5.2h6v-5.2H115z"></path>	<path id="Path_383" fill="#F29906" d="M38.8,21.5c1.5-1.6,3-3.1,4.7-4.6c8.4-7.6,17.9-13,26.7-15.2c2.5-0.7,5.2-1,7.8-1  c5.1,0,9.3,1.6,12.1,4.6c3.5,3.9,4.3,9.7,2.7,16.2h0.7c1.5-6.7,0.7-12.7-2.9-16.7c-4.2-4.7-11.5-6-20.5-3.8  c-8.9,2.2-18.6,7.6-27,15.3c-1.8,1.7-3.6,3.4-5.2,5.1L38.8,21.5L38.8,21.5z"></path>	<path id="Path_384" fill="#F29906" d="M77.5,47.1c-1.1,1.2-2.3,2.3-3.5,3.4c-8.4,7.6-17.9,13-26.7,15.2c-8.8,2.2-15.8,0.9-19.9-3.6  c-3.2-3.5-4.2-8.8-3-15h-0.7c-1.2,6.4-0.1,11.8,3.2,15.5c2.9,3.2,7.2,4.8,12.6,4.8c2.7,0,5.4-0.4,8-1c8.9-2.2,18.6-7.6,27-15.3  c1.4-1.3,2.8-2.6,4-3.9L77.5,47.1L77.5,47.1z"></path></g></svg>